<svg id="svg" version="1.1" width="400" height="600" viewBox="0 0 400 600" xmlns="http://www.w3.org/2000/svg" xmlns:xlink="http://www.w3.org/1999/xlink" ><g id="svgg"><path id="path0" d="M244.806 5.326 C 244.795 5.893,245.613 7.200,245.979 7.200 C 246.428 7.200,246.297 6.222,245.836 6.134 C 245.645 6.098,245.337 5.828,245.151 5.534 C 244.965 5.240,244.809 5.147,244.806 5.326 M193.974 13.584 C 193.409 13.753,190.439 13.910,187.374 13.933 C 181.536 13.977,175.584 14.479,172.200 15.214 C 171.100 15.452,169.210 15.784,168.000 15.951 C 164.633 16.416,154.427 18.675,151.800 19.537 C 151.140 19.753,147.630 20.862,144.000 22.001 C 137.193 24.138,134.714 25.085,129.650 27.488 C 128.028 28.258,125.688 29.334,124.450 29.879 C 123.213 30.424,121.930 31.103,121.600 31.388 C 121.270 31.672,120.550 32.037,120.000 32.199 C 119.450 32.360,118.640 32.806,118.200 33.191 C 117.760 33.575,116.824 34.081,116.121 34.316 C 115.418 34.551,113.888 35.435,112.721 36.280 C 111.554 37.125,109.956 38.152,109.169 38.562 C 108.381 38.972,107.031 39.824,106.169 40.454 C 105.306 41.085,103.814 42.096,102.854 42.701 C 101.382 43.627,98.525 46.043,95.582 48.850 C 95.207 49.208,94.442 49.658,93.881 49.850 C 92.650 50.273,83.401 58.493,82.506 59.959 C 82.157 60.531,80.325 62.542,78.435 64.426 C 76.546 66.311,74.380 68.561,73.623 69.426 C 70.368 73.147,68.521 75.442,68.306 76.034 C 68.180 76.382,66.534 78.584,64.650 80.927 C 62.765 83.269,60.846 85.925,60.385 86.829 C 59.924 87.732,58.954 89.311,58.230 90.336 C 56.977 92.108,55.436 94.878,51.184 103.000 C 50.147 104.980,49.008 107.140,48.652 107.800 C 48.296 108.460,48.004 109.273,48.002 109.606 C 48.001 109.939,47.617 110.926,47.150 111.799 C 46.682 112.671,46.031 114.109,45.704 114.993 C 43.800 120.130,42.719 123.140,42.397 124.200 C 42.196 124.860,41.579 126.660,41.026 128.200 C 40.473 129.740,40.014 131.360,40.005 131.800 C 39.997 132.240,39.615 133.770,39.156 135.200 C 38.698 136.630,38.176 138.790,37.997 140.000 C 37.817 141.210,37.492 142.920,37.275 143.800 C 36.479 147.015,36.000 150.301,36.000 152.544 C 36.000 153.953,35.734 155.334,35.312 156.120 C 33.473 159.542,33.494 198.321,35.337 201.880 C 35.729 202.636,36.000 204.100,36.000 205.456 C 36.000 208.183,36.665 212.083,37.442 213.914 C 37.749 214.636,38.001 216.076,38.002 217.114 C 38.004 218.151,38.274 219.516,38.602 220.146 C 38.931 220.776,39.200 221.723,39.200 222.251 C 39.200 222.779,39.366 223.523,39.569 223.905 C 39.772 224.287,40.323 225.950,40.793 227.600 C 42.442 233.387,44.093 238.213,44.899 239.600 C 45.347 240.370,45.853 241.540,46.025 242.200 C 46.399 243.636,48.244 248.275,48.889 249.400 C 49.141 249.840,49.596 250.740,49.899 251.400 C 50.203 252.060,50.629 252.927,50.846 253.326 C 51.062 253.726,53.227 257.956,55.656 262.726 C 58.085 267.497,60.403 271.760,60.808 272.200 C 61.212 272.640,62.461 274.838,63.584 277.085 C 64.707 279.331,66.037 281.671,66.540 282.285 C 67.043 282.898,68.213 284.930,69.142 286.800 C 70.748 290.037,73.659 294.863,74.885 296.321 C 75.199 296.695,76.068 298.260,76.818 299.800 C 77.567 301.340,78.408 302.882,78.686 303.226 C 79.188 303.850,82.548 309.274,84.157 312.060 C 85.217 313.897,89.412 320.269,90.437 321.600 C 90.861 322.150,91.389 323.027,91.612 323.549 C 91.835 324.071,92.834 325.572,93.832 326.884 C 94.830 328.196,95.812 329.706,96.015 330.240 C 96.218 330.773,97.586 332.963,99.054 335.105 C 104.142 342.526,106.142 345.405,106.901 346.400 C 107.992 347.830,110.400 351.721,110.400 352.053 C 110.400 352.348,117.028 362.133,119.276 365.158 C 119.994 366.124,121.091 367.924,121.713 369.158 C 122.335 370.391,123.554 372.242,124.422 373.272 C 125.290 374.301,126.000 375.267,126.000 375.418 C 126.000 375.748,129.485 381.119,134.900 389.135 C 135.725 390.356,136.400 391.509,136.400 391.697 C 136.400 391.885,137.154 393.155,138.075 394.520 C 140.832 398.602,141.047 398.942,141.783 400.400 C 142.172 401.170,143.315 403.060,144.322 404.600 C 146.617 408.107,147.561 409.626,149.172 412.400 C 151.477 416.371,152.091 417.386,152.852 418.486 C 153.265 419.083,154.704 421.693,156.049 424.286 C 157.394 426.879,158.726 429.270,159.010 429.600 C 159.294 429.930,160.263 431.604,161.164 433.320 C 162.064 435.036,163.398 437.376,164.127 438.520 C 164.856 439.664,166.321 442.310,167.382 444.400 C 168.444 446.490,170.817 451.145,172.656 454.744 C 174.495 458.343,176.000 461.511,176.000 461.784 C 176.000 462.058,177.798 465.863,179.996 470.241 C 182.193 474.618,183.993 478.438,183.996 478.729 C 183.998 479.020,184.432 480.010,184.961 480.929 C 185.489 481.848,186.052 483.230,186.211 484.000 C 186.369 484.770,186.803 485.850,187.175 486.400 C 187.921 487.505,189.999 492.097,190.002 492.650 C 190.004 492.843,190.245 493.460,190.538 494.022 C 190.832 494.584,191.356 495.844,191.703 496.822 C 192.050 497.800,192.995 500.130,193.804 502.000 C 194.612 503.870,195.539 506.370,195.863 507.555 C 196.188 508.740,196.702 510.090,197.007 510.555 C 197.311 511.020,198.114 513.097,198.791 515.172 C 199.469 517.246,200.358 519.496,200.768 520.172 C 201.178 520.847,201.712 522.350,201.955 523.511 C 202.198 524.673,202.653 526.023,202.968 526.511 C 203.282 527.000,203.719 528.390,203.938 529.600 C 204.158 530.810,205.412 535.040,206.723 539.000 C 208.035 542.960,209.301 546.920,209.536 547.800 C 209.771 548.680,210.405 550.930,210.945 552.800 C 211.485 554.670,212.128 557.190,212.374 558.400 C 213.581 564.343,216.507 565.568,217.628 560.600 C 218.580 556.379,220.913 547.337,221.396 546.000 C 221.868 544.690,222.865 541.005,224.262 535.405 C 224.591 534.088,225.021 532.816,225.217 532.579 C 225.414 532.342,225.825 531.075,226.131 529.763 C 226.437 528.451,226.962 526.843,227.297 526.189 C 227.631 525.535,228.036 524.190,228.195 523.200 C 228.354 522.210,228.804 520.860,229.195 520.200 C 229.586 519.540,230.032 518.115,230.187 517.033 C 230.342 515.952,230.735 514.660,231.060 514.164 C 231.385 513.668,232.440 510.863,233.404 507.931 C 234.368 504.999,235.600 501.430,236.141 500.000 C 236.683 498.570,237.441 496.500,237.826 495.400 C 238.212 494.300,238.835 492.770,239.212 492.000 C 239.589 491.230,240.021 490.073,240.174 489.430 C 240.326 488.786,241.249 486.618,242.225 484.611 C 243.201 482.605,244.000 480.638,244.000 480.241 C 244.000 479.843,244.434 478.681,244.965 477.659 C 246.740 474.243,249.307 468.487,249.808 466.800 C 249.972 466.250,250.881 464.211,251.828 462.269 C 252.775 460.327,253.673 458.167,253.824 457.469 C 253.975 456.771,254.887 454.898,255.849 453.307 C 256.812 451.716,257.600 450.310,257.600 450.184 C 257.600 450.058,258.431 448.210,259.446 446.077 C 260.462 443.945,262.012 440.670,262.891 438.800 C 266.383 431.373,267.694 428.773,268.681 427.319 C 269.247 426.484,269.894 425.261,270.117 424.600 C 270.340 423.940,270.833 422.950,271.212 422.400 C 271.592 421.850,272.948 419.420,274.227 417.000 C 275.505 414.580,277.139 411.520,277.856 410.200 C 278.574 408.880,279.986 406.142,280.995 404.115 C 282.003 402.088,282.997 400.326,283.203 400.198 C 283.409 400.071,283.946 399.209,284.398 398.283 C 284.849 397.358,285.439 396.235,285.709 395.789 C 290.970 387.095,294.436 381.154,296.093 377.991 C 296.614 376.996,298.221 374.296,299.665 371.991 C 301.109 369.686,302.900 366.758,303.645 365.485 C 304.390 364.212,305.360 362.559,305.800 361.811 C 306.497 360.627,310.636 353.968,315.176 346.729 C 315.959 345.479,317.680 342.626,319.000 340.388 C 320.320 338.150,322.242 334.942,323.271 333.259 C 324.300 331.577,325.809 329.030,326.625 327.600 C 327.441 326.170,328.500 324.460,328.978 323.800 C 330.151 322.179,334.000 315.709,334.000 315.357 C 334.000 315.202,334.411 314.519,334.914 313.838 C 335.416 313.157,336.056 312.150,336.337 311.600 C 336.617 311.050,337.365 309.700,337.999 308.600 C 338.634 307.500,339.471 305.970,339.861 305.200 C 340.250 304.430,340.784 303.530,341.047 303.200 C 341.930 302.093,348.471 289.390,351.369 283.156 C 352.147 281.482,353.057 279.885,353.392 279.607 C 353.726 279.329,354.000 278.925,354.000 278.709 C 354.000 278.493,354.914 276.400,356.030 274.058 C 362.513 260.463,363.964 257.291,364.246 256.092 C 364.387 255.492,364.811 254.370,365.187 253.600 C 365.563 252.830,366.198 251.526,366.598 250.702 C 367.589 248.658,371.156 238.221,371.623 236.000 C 371.831 235.010,372.283 233.210,372.628 232.000 C 373.552 228.761,373.885 227.312,374.423 224.200 C 374.689 222.660,375.071 220.590,375.271 219.600 C 375.658 217.685,376.211 212.748,376.774 206.200 C 376.963 204.000,377.308 201.390,377.541 200.400 C 378.132 197.890,378.125 185.552,377.531 184.126 C 377.274 183.507,376.917 180.480,376.738 177.400 C 376.202 168.161,375.716 163.582,374.888 160.000 C 374.456 158.130,373.977 155.441,373.823 154.025 C 373.669 152.609,373.286 150.953,372.972 150.345 C 372.657 149.737,372.400 148.826,372.400 148.321 C 372.400 147.816,371.968 146.052,371.440 144.401 C 370.912 142.751,369.906 139.420,369.203 137.000 C 368.501 134.580,367.492 131.682,366.963 130.560 C 366.433 129.438,366.000 128.253,366.000 127.928 C 366.000 127.422,363.886 122.516,360.688 115.600 C 359.133 112.236,357.885 109.802,357.408 109.200 C 356.959 108.634,356.557 107.877,354.114 103.000 C 353.564 101.900,351.738 98.956,350.057 96.458 C 348.375 93.960,346.252 90.751,345.337 89.328 C 344.423 87.904,342.967 85.898,342.102 84.870 C 341.237 83.841,340.296 82.550,340.010 82.000 C 338.523 79.136,323.229 62.559,319.527 59.800 C 318.936 59.360,316.573 57.380,314.274 55.400 C 309.769 51.520,309.945 51.659,305.402 48.400 C 303.716 47.190,301.225 45.376,299.868 44.369 C 298.511 43.363,296.175 41.833,294.678 40.969 C 293.182 40.106,291.022 38.821,289.878 38.113 C 288.735 37.405,287.350 36.624,286.800 36.378 C 286.250 36.131,285.350 35.678,284.800 35.372 C 282.353 34.006,274.013 30.000,273.617 30.000 C 272.978 30.000,267.704 27.291,267.406 26.810 C 267.267 26.584,266.718 26.400,266.187 26.400 C 265.656 26.400,263.861 25.860,262.200 25.200 C 260.539 24.540,258.774 24.000,258.279 24.000 C 257.783 24.000,256.958 23.706,256.446 23.347 C 255.933 22.988,254.112 22.382,252.400 22.000 C 250.688 21.618,248.867 21.012,248.354 20.653 C 247.826 20.283,246.636 19.999,245.611 19.999 C 244.520 19.998,243.290 19.686,242.517 19.214 C 241.811 18.784,240.281 18.310,239.117 18.162 C 237.952 18.013,236.495 17.636,235.878 17.324 C 235.260 17.012,232.560 16.566,229.878 16.334 C 226.831 16.070,224.399 15.638,223.400 15.184 C 221.857 14.483,209.712 13.346,205.400 13.499 C 201.219 13.647,196.309 13.628,195.689 13.462 C 195.310 13.360,194.538 13.415,193.974 13.584 M221.400 90.619 C 239.481 91.832,239.190 91.697,241.969 100.200 C 242.401 101.520,243.314 104.130,243.999 106.000 C 244.684 107.870,245.578 110.390,245.985 111.600 C 246.393 112.810,248.111 117.760,249.803 122.600 C 251.495 127.440,253.837 134.190,255.009 137.600 C 256.180 141.010,258.068 146.410,259.203 149.600 C 260.339 152.790,261.603 156.390,262.012 157.600 C 262.421 158.810,263.306 161.330,263.979 163.200 C 264.652 165.070,265.922 168.670,266.803 171.200 C 267.683 173.730,268.950 177.330,269.617 179.200 C 270.285 181.070,271.256 183.860,271.776 185.400 C 273.531 190.602,277.123 200.966,279.193 206.800 C 280.324 209.990,281.697 213.860,282.243 215.400 C 282.790 216.940,283.513 219.100,283.851 220.200 C 284.188 221.300,284.705 222.740,284.999 223.400 C 285.293 224.060,286.277 226.760,287.185 229.400 C 288.094 232.040,289.621 236.450,290.579 239.200 C 291.536 241.950,293.807 248.520,295.626 253.800 C 297.444 259.080,299.453 264.840,300.088 266.600 C 300.724 268.360,301.584 270.790,302.000 272.000 C 302.416 273.210,303.308 275.730,303.982 277.600 C 311.310 297.914,311.941 296.912,291.932 296.721 L 279.263 296.600 278.194 295.600 C 276.537 294.051,276.232 293.270,270.542 276.008 C 267.603 267.094,265.023 259.440,264.807 259.000 C 264.591 258.560,264.242 257.480,264.032 256.600 C 263.282 253.456,258.312 239.387,257.716 238.718 C 256.877 237.776,255.935 237.704,237.800 237.195 C 208.206 236.364,185.503 236.061,184.571 236.486 C 183.598 236.929,182.848 238.695,179.597 248.200 C 178.469 251.500,177.201 255.100,176.780 256.200 C 176.359 257.300,175.755 259.010,175.438 260.000 C 175.121 260.990,173.936 264.410,172.804 267.600 C 171.672 270.790,170.323 274.660,169.806 276.200 C 165.039 290.413,163.326 294.438,161.471 295.782 C 160.396 296.562,159.702 296.606,146.671 296.724 C 125.475 296.916,125.929 297.432,132.272 280.400 C 132.804 278.970,133.669 276.630,134.193 275.200 C 134.717 273.770,135.617 271.340,136.193 269.800 C 136.769 268.260,137.519 266.190,137.859 265.200 C 138.199 264.210,138.738 262.814,139.058 262.098 C 139.378 261.382,139.885 260.032,140.186 259.098 C 140.486 258.164,141.301 255.960,141.995 254.200 C 142.690 252.440,143.680 249.830,144.196 248.400 C 144.711 246.970,145.501 244.810,145.952 243.600 C 146.402 242.390,147.297 239.960,147.941 238.200 C 148.585 236.440,149.594 233.740,150.184 232.200 C 150.774 230.660,151.609 228.332,152.040 227.027 C 152.471 225.722,152.976 224.462,153.162 224.227 C 153.349 223.992,153.777 222.900,154.115 221.800 C 154.452 220.700,155.300 218.360,156.000 216.600 C 156.700 214.840,157.548 212.500,157.885 211.400 C 158.223 210.300,158.639 209.220,158.810 209.000 C 158.982 208.780,159.491 207.520,159.942 206.200 C 160.394 204.880,161.237 202.540,161.817 201.000 C 162.396 199.460,163.298 197.030,163.821 195.600 C 164.343 194.170,165.230 191.786,165.792 190.302 C 168.292 183.696,168.912 182.043,169.807 179.600 C 170.331 178.170,171.231 175.740,171.807 174.200 C 172.383 172.660,173.280 170.230,173.800 168.800 C 174.320 167.370,175.182 165.030,175.716 163.600 C 176.249 162.170,177.501 158.750,178.498 156.000 C 179.495 153.250,180.503 150.550,180.739 150.000 C 180.974 149.450,182.056 146.570,183.142 143.600 C 188.800 128.128,194.070 113.807,199.702 98.600 C 201.671 93.284,202.964 90.990,204.277 90.480 C 206.679 89.549,205.296 89.538,221.400 90.619 M220.181 132.831 C 219.919 133.254,217.442 140.087,215.987 144.400 C 215.578 145.610,214.684 148.130,213.999 150.000 C 213.314 151.870,212.385 154.570,211.934 156.000 C 211.483 157.430,210.974 158.780,210.803 159.000 C 210.632 159.220,210.359 160.030,210.197 160.800 C 210.034 161.570,209.575 162.920,209.176 163.800 C 208.778 164.680,208.272 166.030,208.053 166.800 C 207.833 167.570,207.000 170.000,206.202 172.200 C 205.403 174.400,204.415 177.190,204.005 178.400 C 203.596 179.610,202.246 183.480,201.006 187.000 C 199.765 190.520,198.509 194.120,198.213 195.000 C 197.917 195.880,197.117 198.159,196.434 200.065 C 195.110 203.764,195.175 205.286,196.677 205.759 C 198.222 206.245,244.106 207.461,245.710 207.058 C 247.323 206.653,247.222 205.604,244.925 198.935 C 243.726 195.451,242.496 191.790,242.193 190.800 C 241.890 189.810,240.992 187.200,240.197 185.000 C 239.402 182.800,238.475 180.011,238.138 178.803 C 237.801 177.595,237.335 176.253,237.105 175.822 C 236.874 175.390,236.451 174.219,236.165 173.218 C 234.770 168.339,222.898 133.600,222.434 133.041 C 221.826 132.309,220.576 132.192,220.181 132.831 M83.800 337.600 C 83.566 337.979,83.836 338.152,84.500 338.047 C 84.665 338.021,84.800 338.210,84.800 338.467 C 84.800 338.723,84.894 338.839,85.009 338.724 C 85.299 338.434,84.790 337.200,84.381 337.200 C 84.197 337.200,83.936 337.380,83.800 337.600 M91.800 349.600 C 91.566 349.979,91.836 350.152,92.500 350.047 C 92.665 350.021,92.800 350.210,92.800 350.467 C 92.800 350.723,92.894 350.839,93.009 350.724 C 93.299 350.434,92.790 349.200,92.381 349.200 C 92.197 349.200,91.936 349.380,91.800 349.600 M103.800 367.600 C 103.566 367.979,103.836 368.152,104.500 368.047 C 104.665 368.021,104.800 368.210,104.800 368.467 C 104.800 368.723,104.894 368.839,105.009 368.724 C 105.299 368.434,104.790 367.200,104.381 367.200 C 104.197 367.200,103.936 367.380,103.800 367.600 M119.800 391.600 C 119.566 391.979,119.836 392.152,120.500 392.047 C 120.665 392.021,120.800 392.210,120.800 392.467 C 120.800 392.723,120.894 392.839,121.009 392.724 C 121.299 392.434,120.790 391.200,120.381 391.200 C 120.197 391.200,119.936 391.380,119.800 391.600 M135.800 417.600 C 135.566 417.979,135.836 418.152,136.500 418.047 C 136.665 418.021,136.800 418.210,136.800 418.467 C 136.800 418.723,136.894 418.839,137.009 418.724 C 137.299 418.434,136.790 417.200,136.381 417.200 C 136.197 417.200,135.936 417.380,135.800 417.600 M185.800 519.600 C 185.566 519.979,185.836 520.152,186.500 520.047 C 186.665 520.021,186.800 520.210,186.800 520.467 C 186.800 520.723,186.894 520.839,187.009 520.724 C 187.299 520.434,186.790 519.200,186.381 519.200 C 186.197 519.200,185.936 519.380,185.800 519.600 " stroke="none" fill="#251d1b" fill-rule="evenodd"></path><path id="path1" d="M186.000 0.600 C 186.000 0.930,186.270 1.200,186.600 1.200 C 186.930 1.200,187.200 0.930,187.200 0.600 C 187.200 0.270,186.930 0.000,186.600 0.000 C 186.270 0.000,186.000 0.270,186.000 0.600 M196.400 0.600 C 196.400 0.930,196.580 1.200,196.800 1.200 C 197.020 1.200,197.200 0.930,197.200 0.600 C 197.200 0.270,197.020 0.000,196.800 0.000 C 196.580 0.000,196.400 0.270,196.400 0.600 M167.200 1.557 C 167.200 1.827,167.040 1.949,166.845 1.828 C 166.650 1.707,166.282 1.861,166.026 2.169 C 165.760 2.489,165.718 2.826,165.927 2.955 C 166.378 3.234,167.831 1.698,167.464 1.331 C 167.319 1.186,167.200 1.287,167.200 1.557 M134.720 10.407 C 133.848 11.134,133.842 11.173,134.600 11.174 C 135.767 11.175,137.021 10.170,136.231 9.867 C 135.906 9.742,135.225 9.985,134.720 10.407 M120.026 16.169 C 119.751 16.500,119.714 16.823,119.935 16.960 C 120.141 17.087,120.518 16.939,120.774 16.631 C 121.049 16.300,121.086 15.977,120.865 15.840 C 120.659 15.713,120.282 15.861,120.026 16.169 M116.276 18.316 C 115.675 18.980,115.683 19.036,116.387 19.089 C 116.908 19.128,117.128 18.903,117.088 18.373 C 117.017 17.437,117.068 17.441,116.276 18.316 M112.400 20.600 C 111.992 21.091,112.020 21.200,112.551 21.200 C 112.908 21.200,113.200 20.930,113.200 20.600 C 113.200 20.270,113.132 20.000,113.049 20.000 C 112.966 20.000,112.674 20.270,112.400 20.600 M102.400 25.557 C 102.400 25.827,102.192 25.919,101.938 25.762 C 101.665 25.593,101.584 25.651,101.741 25.904 C 101.886 26.139,101.779 26.423,101.502 26.534 C 101.189 26.660,101.170 26.749,101.451 26.768 C 102.034 26.809,102.993 25.660,102.657 25.324 C 102.516 25.182,102.400 25.287,102.400 25.557 M293.400 26.000 C 293.798 26.440,294.321 26.786,294.562 26.768 C 294.813 26.750,294.785 26.650,294.498 26.534 C 294.221 26.423,294.114 26.139,294.259 25.904 C 294.416 25.651,294.335 25.593,294.062 25.762 C 293.808 25.919,293.600 25.857,293.600 25.624 C 293.600 25.391,293.392 25.200,293.138 25.200 C 292.876 25.200,292.989 25.546,293.400 26.000 M90.479 34.116 C 89.620 35.030,89.620 35.031,90.444 35.093 C 90.978 35.134,91.197 34.969,91.066 34.626 C 90.954 34.336,91.064 33.896,91.311 33.649 C 91.558 33.402,91.665 33.200,91.550 33.200 C 91.434 33.200,90.952 33.612,90.479 34.116 M317.444 41.928 C 317.315 42.138,317.462 42.520,317.772 42.777 C 318.217 43.146,318.317 43.116,318.246 42.634 C 318.125 41.808,317.732 41.462,317.444 41.928 M78.400 44.600 C 77.992 45.091,78.020 45.200,78.551 45.200 C 78.908 45.200,79.200 44.930,79.200 44.600 C 79.200 44.270,79.132 44.000,79.049 44.000 C 78.966 44.000,78.674 44.270,78.400 44.600 M66.400 56.600 C 65.992 57.091,66.020 57.200,66.551 57.200 C 66.908 57.200,67.200 56.930,67.200 56.600 C 67.200 56.270,67.132 56.000,67.049 56.000 C 66.966 56.000,66.674 56.270,66.400 56.600 M345.444 69.928 C 345.315 70.138,345.462 70.520,345.772 70.777 C 346.217 71.146,346.317 71.116,346.246 70.634 C 346.125 69.808,345.732 69.462,345.444 69.928 M50.227 76.370 C 49.565 77.101,49.565 77.134,50.232 77.036 C 50.618 76.980,50.978 76.633,51.031 76.267 C 51.156 75.420,51.078 75.430,50.227 76.370 M351.444 77.928 C 351.315 78.138,351.462 78.520,351.772 78.777 C 352.217 79.146,352.317 79.116,352.246 78.634 C 352.125 77.808,351.732 77.462,351.444 77.928 M356.973 86.294 C 357.024 86.646,357.354 86.976,357.706 87.027 C 358.093 87.084,358.264 86.912,358.141 86.591 C 357.834 85.790,356.862 85.543,356.973 86.294 M38.400 96.600 C 37.992 97.091,38.020 97.200,38.551 97.200 C 38.908 97.200,39.200 96.930,39.200 96.600 C 39.200 96.270,39.132 96.000,39.049 96.000 C 38.966 96.000,38.674 96.270,38.400 96.600 M36.276 100.316 C 35.675 100.980,35.683 101.036,36.387 101.089 C 36.908 101.128,37.128 100.903,37.088 100.373 C 37.017 99.437,37.068 99.441,36.276 100.316 M34.026 104.169 C 33.751 104.500,33.714 104.823,33.935 104.960 C 34.141 105.087,34.518 104.939,34.774 104.631 C 35.049 104.300,35.086 103.977,34.865 103.840 C 34.659 103.713,34.282 103.861,34.026 104.169 M30.100 114.777 C 28.919 115.762,28.958 116.037,30.197 115.462 C 30.745 115.208,31.195 114.775,31.197 114.500 C 31.201 113.869,31.184 113.873,30.100 114.777 M375.333 120.600 C 375.333 120.930,375.422 121.112,375.530 121.003 C 375.638 120.895,375.997 121.030,376.327 121.303 C 376.858 121.742,376.863 121.694,376.368 120.900 C 375.719 119.857,375.333 119.746,375.333 120.600 M377.232 125.451 C 377.191 126.034,378.340 126.993,378.676 126.657 C 378.818 126.516,378.713 126.400,378.443 126.400 C 378.173 126.400,378.081 126.192,378.238 125.938 C 378.407 125.665,378.349 125.584,378.096 125.741 C 377.861 125.886,377.577 125.779,377.466 125.502 C 377.340 125.189,377.251 125.170,377.232 125.451 M26.026 128.169 C 25.751 128.500,25.714 128.823,25.935 128.960 C 26.141 129.087,26.518 128.939,26.774 128.631 C 27.049 128.300,27.086 127.977,26.865 127.840 C 26.659 127.713,26.282 127.861,26.026 128.169 M20.022 158.976 C 19.004 160.061,19.349 160.364,20.579 159.465 C 20.981 159.171,21.237 158.710,21.147 158.441 C 21.043 158.129,20.637 158.322,20.022 158.976 M387.213 166.537 C 387.206 166.722,387.550 167.318,387.977 167.862 C 388.686 168.762,388.749 168.778,388.693 168.042 C 388.660 167.598,388.553 167.314,388.456 167.411 C 388.359 167.508,388.042 167.275,387.752 166.894 C 387.463 166.512,387.220 166.352,387.213 166.537 M19.829 197.553 C 19.696 197.768,19.770 198.058,19.993 198.196 C 20.217 198.334,20.403 198.302,20.406 198.124 C 20.409 197.946,20.587 198.070,20.800 198.400 C 21.013 198.730,21.191 198.797,21.194 198.549 C 21.203 197.874,20.119 197.083,19.829 197.553 M25.644 227.092 C 26.369 228.293,27.023 228.487,27.096 227.522 C 27.134 227.017,26.965 226.805,26.626 226.934 C 26.336 227.046,25.874 226.927,25.602 226.669 C 25.265 226.350,25.279 226.486,25.644 227.092 M383.464 235.377 C 383.294 235.821,383.363 235.946,383.673 235.755 C 383.994 235.557,384.047 235.704,383.844 236.234 C 383.623 236.815,383.665 236.889,384.018 236.539 C 384.330 236.229,384.357 235.852,384.101 235.395 C 383.748 234.763,383.700 234.762,383.464 235.377 M33.875 251.451 C 34.188 252.267,35.033 252.359,35.091 251.583 C 35.127 251.107,34.893 250.873,34.417 250.909 C 34.016 250.939,33.772 251.183,33.875 251.451 M35.644 255.092 C 36.369 256.293,37.023 256.487,37.096 255.522 C 37.134 255.017,36.965 254.805,36.626 254.934 C 36.336 255.046,35.874 254.927,35.602 254.669 C 35.265 254.350,35.279 254.486,35.644 255.092 M40.000 262.951 C 40.000 263.034,40.270 263.326,40.600 263.600 C 41.091 264.008,41.200 263.980,41.200 263.449 C 41.200 263.092,40.930 262.800,40.600 262.800 C 40.270 262.800,40.000 262.868,40.000 262.951 M41.829 267.553 C 41.696 267.768,41.770 268.058,41.993 268.196 C 42.217 268.334,42.403 268.302,42.406 268.124 C 42.409 267.946,42.587 268.070,42.800 268.400 C 43.013 268.730,43.191 268.797,43.194 268.549 C 43.203 267.874,42.119 267.083,41.829 267.553 M46.000 274.951 C 46.000 275.034,46.270 275.326,46.600 275.600 C 47.091 276.008,47.200 275.980,47.200 275.449 C 47.200 275.092,46.930 274.800,46.600 274.800 C 46.270 274.800,46.000 274.868,46.000 274.951 M52.000 284.951 C 52.000 285.034,52.270 285.326,52.600 285.600 C 53.091 286.008,53.200 285.980,53.200 285.449 C 53.200 285.092,52.930 284.800,52.600 284.800 C 52.270 284.800,52.000 284.868,52.000 284.951 M59.644 299.092 C 60.369 300.293,61.023 300.487,61.096 299.522 C 61.134 299.017,60.965 298.805,60.626 298.934 C 60.336 299.046,59.874 298.927,59.602 298.669 C 59.265 298.350,59.279 298.486,59.644 299.092 M66.000 308.951 C 66.000 309.034,66.270 309.326,66.600 309.600 C 67.091 310.008,67.200 309.980,67.200 309.449 C 67.200 309.092,66.930 308.800,66.600 308.800 C 66.270 308.800,66.000 308.868,66.000 308.951 M347.900 316.067 C 347.308 316.687,347.294 316.800,347.813 316.800 C 348.149 316.800,348.532 316.522,348.662 316.183 C 349.009 315.279,348.698 315.231,347.900 316.067 M71.875 319.451 C 72.188 320.267,73.033 320.359,73.091 319.583 C 73.127 319.107,72.893 318.873,72.417 318.909 C 72.016 318.939,71.772 319.183,71.875 319.451 M76.000 324.951 C 76.000 325.034,76.270 325.326,76.600 325.600 C 77.091 326.008,77.200 325.980,77.200 325.449 C 77.200 325.092,76.930 324.800,76.600 324.800 C 76.270 324.800,76.000 324.868,76.000 324.951 M339.405 329.192 C 339.243 329.455,339.290 329.850,339.510 330.070 C 340.031 330.591,340.445 329.921,340.024 329.238 C 339.778 328.840,339.629 328.829,339.405 329.192 M80.000 330.951 C 80.000 331.034,80.270 331.326,80.600 331.600 C 81.091 332.008,81.200 331.980,81.200 331.449 C 81.200 331.092,80.930 330.800,80.600 330.800 C 80.270 330.800,80.000 330.868,80.000 330.951 M100.000 360.951 C 100.000 361.034,100.270 361.326,100.600 361.600 C 101.091 362.008,101.200 361.980,101.200 361.449 C 101.200 361.092,100.930 360.800,100.600 360.800 C 100.270 360.800,100.000 360.868,100.000 360.951 M107.829 373.553 C 107.696 373.768,107.770 374.058,107.993 374.196 C 108.217 374.334,108.403 374.302,108.406 374.124 C 108.409 373.946,108.587 374.070,108.800 374.400 C 109.013 374.730,109.191 374.797,109.194 374.549 C 109.203 373.874,108.119 373.083,107.829 373.553 M111.829 379.553 C 111.696 379.768,111.770 380.058,111.993 380.196 C 112.217 380.334,112.403 380.302,112.406 380.124 C 112.409 379.946,112.587 380.070,112.800 380.400 C 113.013 380.730,113.191 380.797,113.194 380.549 C 113.203 379.874,112.119 379.083,111.829 379.553 M116.000 384.951 C 116.000 385.034,116.270 385.326,116.600 385.600 C 117.091 386.008,117.200 385.980,117.200 385.449 C 117.200 385.092,116.930 384.800,116.600 384.800 C 116.270 384.800,116.000 384.868,116.000 384.951 M297.405 399.192 C 297.243 399.455,297.290 399.850,297.510 400.070 C 298.031 400.591,298.445 399.921,298.024 399.238 C 297.778 398.840,297.629 398.829,297.405 399.192 M129.829 407.553 C 129.696 407.768,129.770 408.058,129.993 408.196 C 130.217 408.334,130.403 408.302,130.406 408.124 C 130.409 407.946,130.587 408.070,130.800 408.400 C 131.013 408.730,131.191 408.797,131.194 408.549 C 131.203 407.874,130.119 407.083,129.829 407.553 M141.644 427.092 C 142.369 428.293,143.023 428.487,143.096 427.522 C 143.134 427.017,142.965 426.805,142.626 426.934 C 142.336 427.046,141.874 426.927,141.602 426.669 C 141.265 426.350,141.279 426.486,141.644 427.092 M145.502 433.866 C 145.779 433.977,145.926 434.196,145.830 434.351 C 145.734 434.507,146.024 434.662,146.475 434.696 C 147.266 434.755,147.269 434.738,146.547 434.191 C 146.136 433.880,145.620 433.634,145.400 433.644 C 145.180 433.655,145.226 433.754,145.502 433.866 M147.875 437.451 C 148.188 438.267,149.033 438.359,149.091 437.583 C 149.127 437.107,148.893 436.873,148.417 436.909 C 148.016 436.939,147.772 437.183,147.875 437.451 M172.000 484.951 C 172.000 485.034,172.270 485.326,172.600 485.600 C 173.091 486.008,173.200 485.980,173.200 485.449 C 173.200 485.092,172.930 484.800,172.600 484.800 C 172.270 484.800,172.000 484.868,172.000 484.951 M173.200 489.138 C 173.200 489.392,173.391 489.600,173.624 489.600 C 173.857 489.600,173.919 489.808,173.762 490.062 C 173.593 490.335,173.651 490.416,173.904 490.259 C 174.139 490.114,174.423 490.221,174.534 490.498 C 174.650 490.785,174.750 490.813,174.768 490.562 C 174.786 490.321,174.440 489.798,174.000 489.400 C 173.546 488.989,173.200 488.876,173.200 489.138 M178.000 498.951 C 178.000 499.034,178.270 499.326,178.600 499.600 C 179.091 500.008,179.200 499.980,179.200 499.449 C 179.200 499.092,178.930 498.800,178.600 498.800 C 178.270 498.800,178.000 498.868,178.000 498.951 M235.405 541.192 C 235.243 541.455,235.290 541.850,235.510 542.070 C 236.031 542.591,236.445 541.921,236.024 541.238 C 235.778 540.840,235.629 540.829,235.405 541.192 M196.000 548.951 C 196.000 549.034,196.270 549.326,196.600 549.600 C 197.091 550.008,197.200 549.980,197.200 549.449 C 197.200 549.092,196.930 548.800,196.600 548.800 C 196.270 548.800,196.000 548.868,196.000 548.951 M199.644 563.092 C 200.369 564.293,201.023 564.487,201.096 563.522 C 201.134 563.017,200.965 562.805,200.626 562.934 C 200.336 563.046,199.874 562.927,199.602 562.669 C 199.265 562.350,199.279 562.486,199.644 563.092 M204.000 578.951 C 204.000 579.034,204.270 579.326,204.600 579.600 C 205.091 580.008,205.200 579.980,205.200 579.449 C 205.200 579.092,204.930 578.800,204.600 578.800 C 204.270 578.800,204.000 578.868,204.000 578.951 " stroke="none" fill="#ff0000" fill-rule="evenodd"></path><path id="path2" d="M187.200 0.600 C 187.200 1.114,185.904 1.210,178.200 1.267 C 173.250 1.303,168.885 1.348,168.500 1.367 C 168.115 1.385,167.491 1.780,167.114 2.245 C 166.417 3.104,166.220 3.129,158.300 3.367 C 157.695 3.385,157.200 3.543,157.200 3.718 C 157.200 3.892,156.885 3.982,156.500 3.918 C 156.023 3.837,155.837 4.023,155.918 4.500 C 156.020 5.108,155.664 5.207,153.218 5.250 C 149.325 5.319,149.415 5.295,149.272 6.300 C 149.152 7.147,148.958 7.200,145.953 7.200 C 143.063 7.200,142.674 7.294,141.835 8.200 C 141.109 8.983,140.515 9.200,139.097 9.200 C 137.856 9.200,137.213 9.389,137.055 9.800 C 136.929 10.130,136.594 10.397,136.313 10.394 C 135.949 10.390,135.975 10.264,136.400 9.963 C 136.933 9.586,136.933 9.557,136.400 9.703 C 136.070 9.793,135.800 10.122,135.800 10.433 C 135.800 10.844,135.155 11.033,133.461 11.121 C 131.611 11.217,130.917 11.447,130.143 12.221 C 129.539 12.825,128.703 13.200,127.963 13.200 C 127.203 13.200,126.429 13.559,125.856 14.178 C 125.181 14.906,124.470 15.180,123.069 15.253 C 121.751 15.321,120.980 15.595,120.494 16.168 C 119.821 16.962,119.824 16.968,120.600 16.393 C 121.314 15.864,121.349 15.866,120.923 16.413 C 120.661 16.750,119.854 17.071,119.131 17.127 C 118.385 17.183,117.370 17.654,116.786 18.213 C 116.130 18.841,115.292 19.200,114.478 19.200 C 113.389 19.200,113.200 19.345,113.200 20.177 C 113.200 21.040,113.002 21.168,111.500 21.277 C 110.187 21.372,109.710 21.605,109.405 22.300 C 109.133 22.920,108.636 23.219,107.805 23.261 C 107.142 23.294,106.330 23.340,106.000 23.361 C 105.670 23.383,105.378 23.626,105.350 23.901 C 105.322 24.175,105.278 24.580,105.250 24.800 C 105.222 25.020,104.679 25.200,104.043 25.200 C 103.368 25.200,102.787 25.458,102.648 25.818 C 102.518 26.158,101.759 26.709,100.962 27.042 C 100.165 27.375,99.421 27.997,99.310 28.424 C 99.197 28.854,98.762 29.200,98.334 29.200 C 97.909 29.200,97.165 29.645,96.681 30.188 C 96.196 30.732,95.260 31.242,94.600 31.322 C 93.940 31.402,93.378 31.677,93.350 31.934 C 93.323 32.190,93.278 32.580,93.250 32.800 C 93.223 33.020,92.895 33.200,92.522 33.200 C 92.149 33.200,91.384 33.637,90.822 34.171 C 90.260 34.705,89.545 35.200,89.233 35.271 C 88.455 35.448,87.291 36.533,87.487 36.900 C 87.575 37.065,87.367 37.223,87.024 37.250 C 86.681 37.278,86.175 37.323,85.900 37.350 C 85.625 37.377,85.377 37.625,85.350 37.900 C 85.323 38.175,85.278 38.559,85.250 38.753 C 85.223 38.948,84.827 39.204,84.370 39.324 C 83.914 39.443,83.446 39.904,83.330 40.348 C 83.213 40.792,82.732 41.210,82.259 41.278 C 81.721 41.354,81.352 41.737,81.272 42.300 C 81.180 42.951,80.876 43.200,80.172 43.200 C 79.402 43.200,79.200 43.408,79.200 44.200 C 79.200 45.000,79.000 45.200,78.200 45.200 C 77.650 45.200,77.200 45.388,77.200 45.618 C 77.200 45.847,76.885 45.982,76.500 45.918 C 76.023 45.837,75.837 46.023,75.918 46.500 C 75.982 46.885,75.847 47.200,75.618 47.200 C 75.388 47.200,75.110 47.200,75.000 47.200 C 74.602 47.200,73.315 48.610,73.357 49.000 C 73.381 49.220,73.220 49.381,73.000 49.357 C 72.780 49.334,72.285 49.649,71.900 50.057 C 71.515 50.466,71.309 50.800,71.442 50.800 C 71.576 50.800,71.126 51.322,70.442 51.960 C 69.759 52.599,69.200 53.306,69.200 53.531 C 69.200 53.757,68.750 54.296,68.200 54.729 C 67.650 55.161,67.200 55.894,67.200 56.358 C 67.200 56.989,66.950 57.200,66.200 57.200 C 65.400 57.200,65.200 57.400,65.200 58.200 C 65.200 59.000,65.000 59.200,64.200 59.200 C 63.408 59.200,63.200 59.402,63.200 60.172 C 63.200 60.876,62.951 61.180,62.300 61.272 C 61.722 61.354,61.354 61.722,61.272 62.300 C 61.180 62.951,60.876 63.200,60.172 63.200 C 59.406 63.200,59.200 63.408,59.200 64.186 C 59.200 64.761,58.868 65.349,58.405 65.597 C 57.967 65.832,57.497 66.471,57.360 67.019 C 57.202 67.645,56.867 67.975,56.455 67.907 C 56.024 67.837,55.840 68.040,55.918 68.500 C 55.982 68.885,55.847 69.200,55.618 69.200 C 55.388 69.200,55.200 69.637,55.200 70.172 C 55.200 70.876,54.951 71.180,54.300 71.272 C 53.722 71.354,53.354 71.722,53.272 72.300 C 53.202 72.795,52.977 73.222,52.772 73.250 C 52.567 73.278,52.193 73.323,51.940 73.350 C 51.687 73.377,51.417 73.805,51.340 74.300 C 51.263 74.795,51.137 75.605,51.060 76.100 C 50.983 76.595,50.713 77.023,50.460 77.050 C 50.207 77.078,49.820 77.123,49.600 77.150 C 49.380 77.178,49.200 77.629,49.200 78.153 C 49.200 78.771,48.918 79.181,48.397 79.317 C 47.894 79.448,47.502 79.990,47.346 80.769 C 47.177 81.616,46.891 81.978,46.449 81.906 C 46.025 81.837,45.841 82.042,45.918 82.500 C 45.982 82.885,45.847 83.200,45.618 83.200 C 45.388 83.200,45.200 83.607,45.200 84.105 C 45.200 84.660,44.852 85.163,44.300 85.405 C 43.605 85.710,43.372 86.187,43.277 87.500 C 43.168 89.002,43.040 89.200,42.177 89.200 C 41.273 89.200,41.200 89.348,41.200 91.172 C 41.200 92.913,41.094 93.159,40.300 93.272 C 39.534 93.381,39.382 93.679,39.279 95.275 C 39.177 96.856,39.021 97.169,38.279 97.275 C 37.614 97.370,37.370 97.714,37.275 98.690 C 37.200 99.469,36.771 100.280,36.192 100.735 C 35.540 101.247,35.201 101.963,35.133 102.965 C 35.034 104.433,34.556 105.192,33.807 105.066 C 33.591 105.030,33.350 105.900,33.270 107.000 C 33.107 109.269,33.130 109.222,32.137 109.368 C 31.317 109.488,31.320 109.478,31.250 112.705 C 31.207 114.687,31.074 115.066,30.300 115.405 C 29.514 115.750,29.385 116.143,29.282 118.500 C 29.198 120.423,29.010 121.200,28.631 121.200 C 27.617 121.200,27.246 122.239,27.165 125.312 C 27.104 127.599,26.917 128.529,26.442 128.899 C 25.899 129.323,25.862 129.305,26.200 128.781 C 26.420 128.441,26.285 128.506,25.900 128.925 C 25.468 129.396,25.200 130.325,25.200 131.348 C 25.200 132.574,24.991 133.138,24.400 133.507 C 23.960 133.782,23.605 134.230,23.612 134.503 C 23.619 134.777,23.808 134.685,24.032 134.300 C 24.256 133.915,24.624 133.600,24.848 133.600 C 25.073 133.600,25.019 133.864,24.729 134.186 C 23.430 135.626,23.207 136.007,23.265 136.682 C 23.558 140.081,23.149 143.215,22.300 144.082 C 21.805 144.587,21.382 145.225,21.360 145.500 C 21.338 145.775,21.293 148.974,21.260 152.609 C 21.200 159.209,21.199 159.218,20.220 159.664 L 19.239 160.111 19.229 178.455 C 19.222 190.849,19.353 196.800,19.633 196.800 C 19.861 196.800,19.919 197.008,19.762 197.262 C 19.596 197.530,19.651 197.616,19.893 197.466 C 20.880 196.856,21.161 198.466,21.229 205.116 C 21.268 209.079,21.457 212.000,21.673 212.000 C 21.879 212.000,21.919 212.208,21.762 212.462 C 21.605 212.716,21.648 212.818,21.857 212.688 C 22.759 212.131,23.122 213.198,23.253 216.800 C 23.339 219.129,23.588 220.805,23.896 221.129 C 24.173 221.419,24.397 221.869,24.394 222.129 C 24.390 222.412,24.219 222.361,23.963 222.000 C 23.586 221.467,23.558 221.467,23.713 222.000 C 23.808 222.330,24.182 222.575,24.543 222.544 C 25.065 222.500,25.200 222.866,25.200 224.323 C 25.200 225.722,25.432 226.398,26.178 227.178 C 27.035 228.075,27.165 228.605,27.234 231.500 C 27.309 234.660,27.352 234.800,28.238 234.800 C 29.102 234.800,29.171 234.979,29.282 237.500 C 29.384 239.827,29.520 240.253,30.269 240.581 C 30.982 240.895,31.175 241.394,31.347 243.381 C 31.616 246.477,31.680 246.798,31.986 246.609 C 32.605 246.226,33.134 247.144,33.249 248.800 C 33.339 250.097,33.629 250.804,34.287 251.329 C 34.840 251.771,35.200 252.492,35.200 253.159 C 35.200 253.817,35.603 254.639,36.200 255.200 C 36.878 255.837,37.200 256.568,37.200 257.470 C 37.200 258.622,37.334 258.800,38.200 258.800 C 39.133 258.800,39.200 258.933,39.200 260.800 C 39.200 262.667,39.267 262.800,40.200 262.800 C 41.133 262.800,41.200 262.933,41.200 264.800 C 41.200 265.941,41.382 266.800,41.624 266.800 C 41.857 266.800,41.919 267.008,41.762 267.262 C 41.596 267.530,41.651 267.616,41.893 267.466 C 42.513 267.083,43.117 268.022,43.267 269.602 C 43.340 270.371,43.610 271.000,43.867 271.000 C 44.763 271.000,45.049 271.585,45.283 273.900 C 45.349 274.544,45.634 274.800,46.287 274.800 C 47.035 274.800,47.200 275.017,47.200 276.000 C 47.200 277.156,48.488 278.979,48.967 278.500 C 49.095 278.372,49.200 278.837,49.200 279.533 C 49.200 280.610,49.347 280.800,50.178 280.800 C 51.061 280.800,51.168 280.985,51.278 282.700 C 51.382 284.321,51.532 284.619,52.300 284.728 C 53.128 284.845,53.556 286.547,53.247 288.500 C 53.221 288.665,53.650 288.800,54.200 288.800 C 55.049 288.800,55.209 288.996,55.261 290.100 C 55.294 290.815,55.340 291.670,55.361 292.000 C 55.383 292.330,55.626 292.622,55.901 292.650 C 56.175 292.678,56.580 292.723,56.800 292.750 C 57.020 292.778,57.200 293.340,57.200 294.000 C 57.200 295.156,58.488 296.979,58.967 296.500 C 59.095 296.372,59.200 296.678,59.200 297.181 C 59.200 297.683,59.744 298.714,60.409 299.471 C 61.074 300.228,61.513 301.017,61.385 301.224 C 61.257 301.431,61.354 301.600,61.600 301.600 C 61.846 301.600,61.933 301.784,61.794 302.010 C 61.655 302.235,61.689 302.394,61.870 302.363 C 62.821 302.197,63.161 302.522,63.275 303.700 C 63.344 304.415,63.507 304.910,63.639 304.800 C 64.136 304.383,65.030 305.606,65.124 306.832 C 65.248 308.459,65.469 308.800,66.401 308.800 C 67.001 308.800,67.179 309.145,67.277 310.500 C 67.372 311.813,67.605 312.290,68.300 312.595 C 68.814 312.820,69.226 313.378,69.260 313.895 C 69.293 314.393,69.338 315.025,69.360 315.300 C 69.414 315.971,70.107 316.738,70.591 316.662 C 70.805 316.628,71.043 317.003,71.118 317.497 C 71.193 317.990,71.800 318.939,72.467 319.605 C 73.133 320.272,73.585 321.061,73.471 321.359 C 73.352 321.670,73.663 322.082,74.201 322.328 C 74.717 322.563,75.197 323.170,75.269 323.677 C 75.354 324.278,75.714 324.645,76.300 324.728 C 77.000 324.827,77.200 325.117,77.200 326.028 C 77.200 327.163,78.494 328.973,78.967 328.500 C 79.095 328.372,79.200 328.837,79.200 329.533 C 79.200 330.618,79.344 330.800,80.200 330.800 C 81.141 330.800,81.556 332.101,81.250 334.093 C 81.225 334.254,81.643 334.496,82.179 334.631 C 82.857 334.801,83.192 335.199,83.277 335.938 C 83.345 336.522,83.616 337.000,83.880 337.000 C 84.640 337.000,85.128 337.702,85.269 339.000 C 85.355 339.783,85.713 340.337,86.300 340.595 C 86.852 340.837,87.200 341.340,87.200 341.895 C 87.200 342.393,87.399 342.800,87.643 342.800 C 87.886 342.800,87.984 343.064,87.860 343.387 C 87.736 343.710,87.835 344.098,88.079 344.249 C 88.348 344.415,88.411 344.341,88.238 344.062 C 88.081 343.808,88.063 343.600,88.197 343.600 C 88.331 343.600,88.712 344.250,89.044 345.044 C 89.376 345.838,89.986 346.576,90.401 346.684 C 90.852 346.802,91.204 347.306,91.277 347.941 C 91.345 348.523,91.616 349.000,91.880 349.000 C 92.682 349.000,93.180 349.756,93.340 351.214 C 93.423 351.976,93.696 352.623,93.946 352.650 C 94.196 352.678,94.580 352.723,94.800 352.750 C 95.020 352.778,95.200 353.250,95.200 353.800 C 95.200 354.600,95.400 354.800,96.200 354.800 C 97.067 354.800,97.207 354.987,97.250 356.200 C 97.330 358.435,97.373 358.597,97.900 358.650 C 98.175 358.678,98.580 358.723,98.800 358.750 C 99.020 358.778,99.200 359.250,99.200 359.800 C 99.200 360.594,99.402 360.800,100.177 360.800 C 101.040 360.800,101.168 360.998,101.277 362.500 C 101.371 363.801,101.607 364.291,102.282 364.587 C 102.792 364.811,103.214 365.401,103.282 365.987 C 103.347 366.544,103.616 367.000,103.880 367.000 C 104.640 367.000,105.128 367.702,105.269 369.000 C 105.355 369.783,105.713 370.337,106.300 370.595 C 106.852 370.837,107.200 371.340,107.200 371.895 C 107.200 372.393,107.391 372.800,107.624 372.800 C 107.857 372.800,107.919 373.008,107.762 373.262 C 107.596 373.530,107.651 373.616,107.893 373.466 C 108.440 373.128,109.089 373.949,109.262 375.200 C 109.340 375.766,109.791 376.371,110.300 376.595 C 110.852 376.837,111.200 377.340,111.200 377.895 C 111.200 378.393,111.391 378.800,111.624 378.800 C 111.857 378.800,111.919 379.008,111.762 379.262 C 111.596 379.530,111.651 379.616,111.893 379.466 C 112.426 379.137,113.015 379.889,113.363 381.342 C 113.518 381.991,113.974 382.573,114.418 382.689 C 114.918 382.820,115.200 383.237,115.200 383.847 C 115.200 384.591,115.414 384.800,116.177 384.800 C 117.040 384.800,117.168 384.998,117.277 386.500 C 117.371 387.801,117.607 388.291,118.282 388.587 C 118.792 388.811,119.214 389.401,119.282 389.987 C 119.347 390.544,119.507 390.910,119.639 390.800 C 120.240 390.296,121.200 391.802,121.200 393.249 C 121.200 394.637,121.305 394.800,122.200 394.800 C 123.014 394.800,123.200 394.996,123.200 395.853 C 123.200 396.467,123.603 397.260,124.167 397.753 C 124.699 398.219,125.194 399.050,125.267 399.600 C 125.358 400.281,125.687 400.641,126.300 400.728 C 127.002 400.827,127.213 401.136,127.261 402.128 C 127.294 402.828,127.340 403.670,127.361 404.000 C 127.383 404.330,127.626 404.622,127.901 404.650 C 128.175 404.678,128.580 404.723,128.800 404.750 C 129.020 404.778,129.200 405.250,129.200 405.800 C 129.200 406.350,129.391 406.800,129.624 406.800 C 129.857 406.800,129.918 407.025,129.759 407.300 C 129.601 407.575,129.619 407.667,129.799 407.503 C 130.396 406.962,131.200 408.078,131.200 409.449 C 131.200 410.623,131.331 410.800,132.200 410.800 C 133.142 410.800,133.534 411.886,133.247 413.700 C 133.221 413.865,133.391 414.000,133.624 414.000 C 133.857 414.000,133.933 414.184,133.794 414.410 C 133.655 414.635,133.689 414.794,133.870 414.763 C 134.791 414.603,135.158 414.900,135.273 415.900 C 135.343 416.505,135.608 416.961,135.862 416.913 C 136.602 416.773,137.156 417.725,137.264 419.319 C 137.348 420.568,137.507 420.800,138.282 420.800 C 139.134 420.800,139.495 421.734,139.247 423.300 C 139.221 423.465,139.391 423.600,139.624 423.600 C 139.857 423.600,139.933 423.784,139.794 424.010 C 139.655 424.235,139.689 424.394,139.870 424.363 C 140.803 424.201,141.200 424.490,141.200 425.330 C 141.200 425.842,141.640 426.674,142.178 427.180 C 142.716 427.685,143.211 428.571,143.278 429.149 C 143.351 429.780,143.760 430.358,144.300 430.595 C 144.852 430.837,145.200 431.340,145.200 431.895 C 145.200 433.203,145.253 433.344,145.960 433.930 C 146.328 434.234,146.361 434.335,146.038 434.168 C 145.678 433.981,145.575 434.036,145.751 434.321 C 145.902 434.565,146.290 434.664,146.613 434.540 C 147.040 434.376,147.200 434.610,147.200 435.400 C 147.200 436.073,147.570 436.776,148.175 437.252 C 148.770 437.720,149.199 438.523,149.275 439.310 C 149.371 440.296,149.612 440.630,150.300 440.728 C 151.128 440.845,151.556 442.547,151.247 444.500 C 151.221 444.665,151.650 444.800,152.200 444.800 C 153.049 444.800,153.200 444.985,153.200 446.026 C 153.200 447.547,153.839 448.800,154.614 448.800 C 155.115 448.800,155.460 450.539,155.261 452.060 C 155.242 452.203,155.671 452.431,156.213 452.568 C 156.989 452.762,157.213 453.092,157.261 454.108 C 157.294 454.818,157.340 455.653,157.363 455.962 C 157.385 456.271,157.734 456.573,158.139 456.632 C 159.127 456.777,159.149 456.814,159.264 458.515 C 159.319 459.332,159.517 460.000,159.705 460.000 C 159.893 460.000,159.919 460.208,159.762 460.462 C 159.605 460.716,159.648 460.818,159.857 460.688 C 160.567 460.250,161.187 461.033,161.294 462.500 C 161.371 463.566,161.643 464.072,162.300 464.372 C 163.105 464.739,163.497 466.117,163.247 467.700 C 163.221 467.865,163.391 468.000,163.624 468.000 C 163.857 468.000,163.919 468.208,163.762 468.462 C 163.605 468.716,163.648 468.818,163.857 468.688 C 164.599 468.230,165.158 469.042,165.257 470.723 C 165.339 472.111,165.524 472.466,166.258 472.650 C 166.982 472.832,167.181 473.200,167.279 474.538 C 167.372 475.812,167.610 476.292,168.300 476.595 C 169.052 476.925,169.200 477.303,169.200 478.895 C 169.200 480.649,169.278 480.800,170.178 480.800 C 171.061 480.800,171.168 480.985,171.278 482.700 C 171.382 484.321,171.532 484.619,172.300 484.728 C 173.094 484.841,173.200 485.087,173.200 486.828 C 173.200 488.003,173.379 488.800,173.643 488.800 C 173.886 488.800,173.984 489.064,173.860 489.387 C 173.736 489.710,173.835 490.098,174.079 490.249 C 174.364 490.425,174.419 490.322,174.232 489.962 C 174.072 489.653,174.224 489.749,174.570 490.176 C 175.091 490.818,175.442 492.842,175.250 494.093 C 175.225 494.254,175.644 494.496,176.182 494.631 C 177.018 494.841,177.177 495.145,177.280 496.738 C 177.382 498.320,177.535 498.619,178.300 498.728 C 179.107 498.842,179.200 499.080,179.200 501.028 C 179.200 503.088,180.272 505.195,180.967 504.500 C 181.163 504.303,181.393 507.577,181.247 508.500 C 181.221 508.665,181.650 508.800,182.200 508.800 C 183.134 508.800,183.644 511.188,183.247 513.700 C 183.221 513.865,183.391 514.000,183.624 514.000 C 183.857 514.000,183.933 514.184,183.794 514.410 C 183.655 514.635,183.689 514.794,183.870 514.763 C 184.919 514.580,185.167 514.957,185.279 516.900 C 185.355 518.217,185.572 518.967,185.862 518.913 C 186.720 518.751,187.151 519.813,187.241 522.312 C 187.325 524.627,187.396 524.800,188.266 524.800 C 189.133 524.800,189.200 524.960,189.200 527.026 C 189.200 529.443,189.702 530.800,190.596 530.800 C 191.018 530.800,191.194 531.491,191.282 533.500 C 191.385 535.857,191.514 536.250,192.300 536.595 C 193.115 536.953,193.623 540.119,193.247 542.500 C 193.221 542.665,193.650 542.800,194.200 542.800 C 195.178 542.800,195.200 542.867,195.200 545.800 C 195.200 548.733,195.222 548.800,196.200 548.800 C 197.172 548.800,197.202 548.883,197.260 551.800 C 197.293 553.450,197.338 555.025,197.360 555.300 C 197.382 555.575,197.805 556.031,198.300 556.313 C 199.092 556.764,199.200 557.145,199.200 559.491 C 199.200 561.761,199.343 562.308,200.166 563.178 C 200.987 564.046,201.154 564.676,201.271 567.363 C 201.389 570.061,201.517 570.541,202.141 570.633 C 203.184 570.786,203.150 570.650,203.229 574.912 C 203.300 578.717,203.322 578.800,204.251 578.800 C 205.187 578.800,205.200 578.854,205.200 582.853 C 205.200 586.658,205.260 586.959,206.180 587.753 C 207.084 588.534,207.166 588.904,207.231 592.469 C 207.298 596.182,207.339 596.348,208.250 596.577 C 208.938 596.749,209.200 597.096,209.200 597.830 L 209.200 598.845 215.862 598.722 C 223.509 598.582,222.695 599.133,223.136 593.800 C 223.330 591.444,223.548 590.600,223.962 590.600 C 224.765 590.600,225.075 588.903,225.149 584.100 C 225.196 581.084,225.269 580.800,226.000 580.800 C 226.440 580.800,226.809 580.755,226.820 580.700 C 226.832 580.645,226.942 578.710,227.065 576.400 C 227.188 574.090,227.476 572.020,227.703 571.800 C 227.985 571.528,228.015 571.579,227.797 571.962 C 227.587 572.330,227.630 572.429,227.921 572.249 C 228.165 572.098,228.252 571.681,228.115 571.322 C 227.947 570.885,228.019 570.765,228.332 570.958 C 228.589 571.117,228.808 571.192,228.819 571.124 C 228.829 571.056,228.939 569.560,229.064 567.800 C 229.212 565.702,229.515 564.327,229.945 563.807 C 230.560 563.062,230.557 563.047,229.900 563.556 C 229.381 563.958,229.200 563.972,229.200 563.612 C 229.200 563.344,229.560 563.031,230.000 562.916 C 230.974 562.661,230.823 563.131,231.071 559.600 C 231.208 557.662,231.516 556.319,231.941 555.807 C 232.560 555.061,232.558 555.046,231.900 555.556 C 231.381 555.958,231.200 555.972,231.200 555.612 C 231.200 555.344,231.560 555.031,232.000 554.916 C 232.964 554.664,232.812 555.087,233.047 552.000 C 233.285 548.887,233.434 548.360,234.036 548.496 C 234.556 548.614,234.747 547.925,235.059 544.800 C 235.180 543.590,235.504 542.330,235.779 542.000 C 236.571 541.049,236.878 539.973,237.091 537.400 C 237.273 535.214,237.753 534.200,238.414 534.609 C 238.553 534.695,238.681 534.548,238.698 534.282 C 238.919 530.837,239.378 528.847,239.987 528.688 C 240.361 528.590,240.693 528.260,240.726 527.955 C 240.759 527.650,240.890 526.320,241.017 525.000 C 241.158 523.537,241.503 522.366,241.902 522.000 C 242.501 521.450,242.508 521.467,241.978 522.200 C 241.445 522.938,241.454 522.957,242.096 522.455 C 242.478 522.155,242.693 521.750,242.572 521.555 C 242.451 521.360,242.494 520.975,242.667 520.700 C 242.839 520.425,243.034 519.403,243.100 518.430 C 243.227 516.539,243.827 515.446,244.507 515.866 C 244.749 516.016,244.804 515.930,244.638 515.662 C 244.481 515.408,244.488 514.982,244.653 514.715 C 244.818 514.448,245.013 513.593,245.086 512.815 C 245.270 510.854,245.517 510.302,246.059 510.636 C 246.348 510.815,246.416 510.749,246.238 510.462 C 246.081 510.208,246.154 510.000,246.400 510.000 C 246.646 510.000,246.731 509.812,246.589 509.582 C 246.447 509.353,246.493 508.948,246.691 508.682 C 246.889 508.417,247.102 507.480,247.164 506.600 C 247.298 504.715,247.500 504.291,248.089 504.655 C 248.349 504.815,248.409 504.737,248.238 504.462 C 248.081 504.208,248.138 504.000,248.364 504.000 C 248.590 504.000,248.671 503.730,248.545 503.400 C 248.418 503.070,248.514 502.800,248.757 502.800 C 249.001 502.800,249.179 502.665,249.153 502.500 C 248.866 500.682,249.273 498.800,249.953 498.800 C 250.760 498.800,251.185 497.782,251.195 495.831 C 251.198 495.189,251.515 494.292,251.900 493.838 C 252.567 493.053,252.567 493.040,251.900 493.556 C 251.381 493.958,251.200 493.972,251.200 493.612 C 251.200 493.344,251.543 493.035,251.963 492.926 C 252.773 492.714,253.186 491.701,253.195 489.900 C 253.198 489.211,253.416 488.800,253.776 488.800 C 254.536 488.800,254.858 488.226,255.091 486.458 C 255.303 484.851,255.444 484.600,256.133 484.600 C 256.390 484.600,256.614 484.420,256.631 484.200 C 256.648 483.980,256.820 483.080,257.013 482.200 C 257.206 481.320,257.372 480.474,257.382 480.320 C 257.392 480.166,257.661 479.806,257.981 479.520 C 258.486 479.067,258.489 479.104,258.003 479.800 C 257.489 480.535,257.498 480.551,258.109 479.998 C 258.804 479.371,259.120 478.236,259.170 476.195 C 259.191 475.366,259.470 474.867,260.065 474.595 C 260.690 474.310,260.974 473.761,261.084 472.624 C 261.178 471.664,261.533 470.842,261.995 470.518 C 262.447 470.202,262.861 469.269,263.020 468.207 C 263.167 467.227,263.582 466.195,263.943 465.913 C 264.542 465.445,264.547 465.470,264.000 466.200 C 263.444 466.941,263.452 466.960,264.096 466.455 C 264.478 466.155,264.693 465.750,264.572 465.555 C 264.451 465.360,264.494 464.975,264.666 464.700 C 264.839 464.425,265.040 463.763,265.113 463.229 C 265.186 462.695,265.613 461.744,266.061 461.115 C 266.897 459.940,267.116 459.266,267.169 457.700 C 267.187 457.174,267.453 456.800,267.810 456.800 C 268.474 456.800,269.200 455.269,269.200 453.870 C 269.200 453.387,269.558 452.769,269.995 452.496 C 270.473 452.198,270.893 451.360,271.046 450.400 C 271.272 448.988,271.564 448.637,272.433 448.730 C 272.562 448.744,272.697 448.541,272.734 448.278 C 273.203 444.941,273.359 444.615,274.433 444.730 C 274.562 444.744,274.697 444.541,274.734 444.278 C 275.203 440.941,275.359 440.615,276.433 440.730 C 276.562 440.744,276.697 440.541,276.734 440.278 C 277.203 436.941,277.359 436.615,278.433 436.730 C 278.562 436.744,278.686 436.541,278.709 436.278 C 278.932 433.758,279.678 432.154,280.414 432.609 C 280.553 432.695,280.697 432.548,280.734 432.282 C 281.115 429.548,281.355 428.800,281.854 428.800 C 282.498 428.800,283.200 427.222,283.200 425.774 C 283.200 425.185,283.432 424.800,283.786 424.800 C 284.271 424.800,285.493 423.233,285.268 422.900 C 284.824 422.244,285.328 420.800,286.000 420.800 C 286.440 420.800,286.821 420.575,286.846 420.300 C 286.872 420.025,286.934 419.620,286.985 419.400 C 287.036 419.180,287.106 418.809,287.139 418.575 C 287.173 418.342,287.600 417.722,288.088 417.198 C 288.576 416.674,289.020 416.055,289.073 415.822 C 289.127 415.590,289.227 415.130,289.297 414.800 C 289.513 413.767,290.038 413.176,290.489 413.455 C 290.749 413.615,290.809 413.537,290.638 413.262 C 290.481 413.008,290.554 412.800,290.800 412.800 C 291.046 412.800,291.169 412.665,291.074 412.500 C 290.766 411.969,291.463 410.600,292.040 410.600 C 292.348 410.600,292.614 410.420,292.631 410.200 C 292.819 407.776,293.419 406.621,294.433 406.730 C 294.562 406.744,294.697 406.541,294.734 406.278 C 295.122 403.518,295.346 402.926,296.134 402.580 C 296.610 402.371,297.000 401.930,297.000 401.600 C 297.000 401.270,297.440 400.414,297.977 399.698 C 298.514 398.982,299.009 398.127,299.077 397.798 C 299.145 397.469,299.256 396.928,299.324 396.596 C 299.392 396.264,299.699 395.769,300.005 395.496 C 300.462 395.089,300.493 395.111,300.181 395.619 C 299.971 395.959,300.115 395.894,300.500 395.475 C 300.885 395.055,301.200 394.281,301.200 393.756 C 301.200 392.924,301.548 392.635,302.433 392.730 C 302.562 392.744,302.697 392.541,302.734 392.278 C 303.163 389.227,303.324 388.800,304.044 388.800 C 304.608 388.800,304.800 388.511,304.800 387.662 C 304.800 386.465,306.030 384.985,306.597 385.499 C 306.779 385.665,306.799 385.575,306.641 385.300 C 306.482 385.025,306.505 384.800,306.691 384.800 C 306.877 384.800,307.058 384.419,307.094 383.953 C 307.129 383.486,307.526 382.847,307.977 382.531 C 308.457 382.195,308.902 381.301,309.050 380.378 C 309.198 379.453,309.524 378.800,309.837 378.800 C 310.677 378.800,311.200 377.648,311.200 375.800 C 311.200 375.086,311.416 374.800,311.957 374.800 C 312.432 374.800,312.807 374.425,312.967 373.790 C 313.106 373.234,313.581 372.419,314.023 371.977 C 314.464 371.536,314.925 370.677,315.046 370.068 C 315.168 369.459,315.646 368.789,316.108 368.580 C 316.569 368.371,316.972 367.827,317.002 367.370 C 317.065 366.406,318.297 364.506,318.668 364.800 C 318.807 364.910,318.987 364.564,319.068 364.032 C 319.149 363.500,319.572 362.815,320.007 362.510 C 320.457 362.195,320.906 361.277,321.050 360.378 C 321.239 359.192,321.488 358.800,322.051 358.800 C 322.463 358.800,322.821 358.575,322.846 358.300 C 322.872 358.025,322.934 357.620,322.985 357.400 C 323.036 357.180,323.106 356.505,323.139 355.900 C 323.187 355.038,323.398 354.800,324.115 354.800 C 324.766 354.800,325.049 354.551,325.095 353.936 C 325.159 353.080,325.927 352.308,326.414 352.609 C 326.553 352.695,326.697 352.548,326.734 352.282 C 327.150 349.296,327.326 348.838,328.103 348.722 C 328.597 348.649,328.978 348.243,329.059 347.703 C 329.133 347.210,329.561 346.439,330.010 345.990 C 330.458 345.542,330.932 344.641,331.063 343.987 C 331.193 343.334,331.552 342.800,331.860 342.800 C 332.494 342.800,333.200 341.220,333.200 339.802 C 333.200 339.125,333.456 338.819,334.100 338.728 C 334.662 338.648,334.961 338.360,334.897 337.962 C 334.840 337.611,335.236 336.846,335.778 336.262 C 336.319 335.678,336.644 335.200,336.501 335.200 C 336.357 335.200,336.456 334.984,336.720 334.720 C 336.984 334.456,337.200 333.916,337.200 333.520 C 337.200 333.124,337.464 332.800,337.786 332.800 C 338.323 332.800,338.972 331.987,339.223 331.000 C 339.278 330.780,339.701 330.090,340.162 329.466 C 340.623 328.843,340.951 328.256,340.892 328.162 C 340.683 327.832,342.026 325.600,342.434 325.600 C 342.661 325.600,342.744 325.432,342.617 325.228 C 342.491 325.023,342.570 324.742,342.793 324.604 C 343.017 324.466,343.200 324.003,343.200 323.576 C 343.200 322.901,343.582 322.639,344.433 322.730 C 344.562 322.744,344.697 322.541,344.734 322.278 C 345.156 319.279,345.325 318.838,346.103 318.722 C 346.597 318.649,346.978 318.243,347.059 317.703 C 347.133 317.210,347.551 316.449,347.987 316.013 C 348.423 315.577,348.903 314.721,349.054 314.110 C 349.206 313.500,349.660 312.765,350.063 312.478 C 350.467 312.191,350.911 311.246,351.050 310.378 C 351.238 309.205,351.491 308.800,352.037 308.800 C 352.613 308.800,352.828 308.384,353.028 306.877 C 353.218 305.439,353.499 304.859,354.141 304.577 C 354.614 304.370,355.018 303.930,355.039 303.600 C 355.061 303.270,355.106 302.505,355.139 301.900 C 355.184 301.087,355.409 300.800,356.000 300.800 C 356.626 300.800,356.800 300.533,356.800 299.576 C 356.800 298.903,356.935 298.425,357.100 298.513 C 357.265 298.601,357.715 298.342,358.100 297.937 C 358.485 297.531,358.719 297.200,358.621 297.200 C 358.287 297.200,359.309 294.606,359.957 293.807 C 360.559 293.065,360.555 293.049,359.900 293.556 C 359.422 293.926,359.200 293.953,359.200 293.639 C 359.200 293.387,359.651 293.009,360.203 292.799 C 360.755 292.589,361.183 292.279,361.156 292.109 C 360.862 290.308,361.271 288.846,362.100 288.728 C 362.595 288.658,363.018 288.330,363.039 288.000 C 363.061 287.670,363.106 286.828,363.139 286.128 C 363.187 285.136,363.398 284.827,364.100 284.728 C 364.595 284.658,365.018 284.330,365.039 284.000 C 365.143 282.405,365.258 282.089,366.039 281.250 C 366.919 280.306,367.119 279.713,367.169 277.900 C 367.188 277.223,367.422 276.800,367.776 276.800 C 368.534 276.800,368.857 276.228,369.095 274.464 C 369.203 273.665,369.609 272.789,369.999 272.516 C 370.389 272.243,370.834 271.346,370.988 270.523 C 371.142 269.701,371.597 268.797,371.999 268.516 C 372.400 268.235,372.852 267.274,373.003 266.381 C 373.154 265.488,373.669 264.335,374.148 263.818 C 374.627 263.301,375.060 262.379,375.111 261.769 C 375.161 261.159,375.517 260.290,375.901 259.837 C 376.566 259.053,376.566 259.040,375.900 259.556 C 375.381 259.958,375.200 259.972,375.200 259.612 C 375.200 259.344,375.560 259.031,376.000 258.916 C 376.440 258.801,376.813 258.593,376.829 258.453 C 377.142 255.664,377.345 254.973,377.983 254.527 C 378.402 254.233,378.851 253.259,379.008 252.302 C 379.162 251.366,379.582 250.243,379.944 249.807 C 380.560 249.062,380.557 249.047,379.900 249.556 C 379.381 249.958,379.200 249.972,379.200 249.612 C 379.200 249.344,379.560 249.031,380.000 248.916 C 380.440 248.801,380.813 248.593,380.829 248.453 C 380.912 247.708,381.235 245.319,381.322 244.800 C 381.472 243.905,382.014 243.162,382.361 243.376 C 382.700 243.585,382.689 243.642,383.013 240.000 C 383.146 238.512,383.633 236.630,384.152 235.600 C 384.779 234.355,385.093 232.938,385.171 231.004 C 385.253 228.962,385.503 227.898,386.098 227.062 C 386.761 226.131,386.945 225.124,387.083 221.659 C 387.272 216.916,387.376 216.347,388.032 216.496 C 388.863 216.686,388.984 213.560,388.984 191.800 C 388.985 170.182,388.872 167.310,388.029 167.504 C 387.356 167.658,387.256 167.063,387.036 161.600 C 386.808 155.957,386.767 155.573,386.414 155.791 C 385.642 156.268,385.265 155.059,385.167 151.799 C 385.046 147.748,384.931 147.200,384.200 147.200 C 383.917 147.200,383.576 146.915,383.443 146.567 C 383.091 145.650,383.139 145.516,383.700 145.853 C 384.085 146.085,384.095 146.021,383.741 145.577 C 383.489 145.260,383.195 143.740,383.088 142.200 C 382.889 139.333,382.151 137.060,381.542 137.436 C 381.354 137.552,381.173 136.872,381.139 135.924 C 381.046 133.305,380.230 131.011,379.542 131.436 C 379.271 131.603,379.056 129.277,379.239 128.163 C 379.260 128.032,378.828 127.447,378.279 126.863 C 377.595 126.136,377.223 125.204,377.102 123.915 C 376.929 122.092,376.199 120.630,375.635 120.979 C 375.484 121.072,375.318 120.575,375.267 119.874 C 375.132 118.034,375.017 117.463,374.665 116.900 C 374.493 116.625,374.461 116.400,374.592 116.400 C 374.724 116.400,374.599 116.149,374.316 115.842 C 374.032 115.535,373.687 115.352,373.550 115.435 C 373.345 115.558,372.844 113.578,372.630 111.800 C 372.604 111.580,372.294 111.448,371.943 111.506 C 371.367 111.601,370.944 110.407,370.630 107.800 C 370.604 107.580,370.294 107.448,369.943 107.506 C 369.364 107.601,368.514 105.009,368.751 103.870 C 368.789 103.689,368.635 103.655,368.410 103.794 C 368.184 103.933,368.000 103.846,368.000 103.600 C 368.000 103.354,367.820 103.264,367.600 103.400 C 367.380 103.536,367.178 103.277,367.150 102.824 C 367.102 102.036,367.016 101.556,366.803 100.900 C 366.749 100.735,366.709 100.510,366.714 100.400 C 366.730 100.059,365.601 99.150,365.577 99.484 C 365.565 99.658,365.340 99.170,365.077 98.400 C 364.815 97.630,364.390 97.000,364.133 97.000 C 363.877 97.000,363.517 96.836,363.333 96.636 C 363.140 96.424,363.210 96.392,363.500 96.559 C 363.775 96.718,364.000 96.672,364.000 96.457 C 364.000 96.242,363.810 96.003,363.578 95.926 C 363.191 95.797,362.907 94.953,362.831 93.700 C 362.814 93.425,362.463 93.200,362.050 93.200 C 361.385 93.200,360.983 92.381,360.644 90.333 C 360.620 90.187,360.436 89.917,360.236 89.733 C 360.024 89.540,359.992 89.610,360.159 89.900 C 360.318 90.175,360.351 90.400,360.234 90.400 C 359.885 90.400,358.813 88.120,359.050 87.883 C 359.248 87.685,358.398 87.092,357.409 86.739 C 357.194 86.663,356.963 86.240,356.894 85.800 C 356.826 85.360,356.710 84.640,356.638 84.200 C 356.558 83.715,356.248 83.446,355.853 83.518 C 355.494 83.582,355.178 83.357,355.150 83.018 C 355.123 82.678,355.078 82.175,355.050 81.900 C 355.023 81.625,354.595 81.342,354.100 81.272 C 353.464 81.182,353.200 80.874,353.200 80.221 C 353.200 79.713,352.895 79.051,352.523 78.749 C 351.939 78.275,351.895 78.282,352.200 78.800 C 352.503 79.314,352.458 79.323,351.890 78.862 C 351.524 78.566,351.241 78.206,351.260 78.062 C 351.279 77.918,351.251 77.665,351.197 77.500 C 351.002 76.898,350.899 76.387,350.850 75.776 C 350.822 75.433,350.656 75.242,350.481 75.350 C 349.974 75.663,349.157 74.990,349.037 74.160 C 348.976 73.734,348.548 73.344,348.064 73.272 C 347.559 73.197,347.200 72.855,347.200 72.449 C 347.200 72.066,346.917 71.404,346.570 70.976 C 346.224 70.549,346.079 70.470,346.247 70.800 C 346.512 71.319,346.461 71.325,345.867 70.843 C 345.490 70.537,345.275 70.191,345.391 70.075 C 345.507 69.960,345.303 69.535,344.939 69.132 C 344.574 68.730,344.407 68.400,344.567 68.400 C 344.726 68.400,344.587 68.130,344.257 67.800 C 343.927 67.470,343.464 67.200,343.229 67.200 C 342.993 67.200,342.800 66.940,342.800 66.623 C 342.800 66.305,342.395 65.762,341.900 65.415 C 341.405 65.068,341.000 64.563,341.000 64.292 C 341.000 64.022,340.602 63.625,340.116 63.412 C 339.630 63.199,339.180 62.659,339.116 62.212 C 339.046 61.721,338.644 61.349,338.100 61.272 C 337.605 61.202,337.178 60.977,337.150 60.772 C 337.123 60.567,337.078 60.175,337.050 59.900 C 337.023 59.625,336.595 59.342,336.100 59.272 C 335.605 59.202,335.178 58.977,335.150 58.772 C 335.123 58.567,335.078 58.175,335.050 57.900 C 335.023 57.625,334.612 57.345,334.138 57.277 C 333.613 57.202,333.179 56.772,333.030 56.177 C 332.879 55.576,332.496 55.200,332.036 55.200 C 331.570 55.200,331.192 54.821,331.036 54.200 C 330.874 53.554,330.504 53.200,329.992 53.200 C 329.557 53.200,329.178 53.020,329.150 52.800 C 329.123 52.580,329.078 52.183,329.050 51.918 C 329.023 51.653,328.550 51.330,328.000 51.200 C 327.450 51.070,326.997 50.792,326.994 50.582 C 326.982 49.827,326.338 49.200,325.576 49.200 C 325.149 49.200,324.821 49.065,324.847 48.900 C 324.968 48.139,324.771 47.205,324.500 47.247 C 323.416 47.418,322.783 47.071,322.560 46.181 C 322.419 45.621,322.212 45.255,322.099 45.367 C 321.809 45.657,320.342 44.819,320.547 44.480 C 320.640 44.326,320.465 43.968,320.158 43.684 C 319.851 43.401,319.600 43.293,319.600 43.446 C 319.600 43.599,319.209 43.381,318.731 42.962 C 318.188 42.486,317.992 42.425,318.208 42.800 C 318.505 43.316,318.460 43.324,317.881 42.855 C 317.511 42.555,317.309 42.148,317.431 41.950 C 317.553 41.752,317.087 41.477,316.395 41.339 C 315.578 41.176,315.012 40.757,314.779 40.144 C 314.565 39.581,314.093 39.200,313.610 39.200 C 312.854 39.200,312.593 38.756,312.786 37.800 C 312.830 37.580,312.747 37.520,312.601 37.666 C 312.454 37.812,311.742 37.684,311.018 37.382 C 310.294 37.079,309.574 36.960,309.417 37.116 C 309.261 37.272,309.170 37.220,309.214 37.000 C 309.479 35.688,309.149 35.200,308.000 35.200 C 307.340 35.200,306.821 35.065,306.847 34.900 C 307.040 33.680,306.717 33.199,305.700 33.193 C 305.055 33.189,304.210 32.775,303.658 32.193 C 303.140 31.647,302.396 31.200,302.004 31.200 C 301.612 31.200,300.997 30.750,300.637 30.200 C 300.153 29.461,299.630 29.200,298.634 29.200 C 297.530 29.200,297.241 29.019,297.036 28.200 C 296.841 27.425,296.527 27.200,295.641 27.200 C 295.012 27.200,294.251 26.895,293.949 26.523 C 293.481 25.947,293.483 25.897,293.962 26.185 C 294.346 26.417,294.432 26.376,294.234 26.055 C 294.075 25.798,293.790 25.683,293.600 25.800 C 293.410 25.917,293.142 25.830,293.004 25.607 C 292.866 25.383,292.333 25.200,291.820 25.200 C 291.181 25.200,290.814 24.911,290.656 24.283 C 290.473 23.553,290.117 23.346,288.913 23.270 C 287.839 23.203,287.187 22.889,286.667 22.187 C 286.139 21.476,285.554 21.200,284.579 21.200 C 283.550 21.200,283.103 20.966,282.713 20.221 C 282.431 19.683,282.065 19.233,281.900 19.221 C 281.735 19.210,280.976 19.200,280.213 19.200 C 279.227 19.200,278.884 19.047,279.028 18.671 C 279.293 17.981,277.556 17.200,275.758 17.200 C 274.985 17.200,274.425 17.065,274.513 16.900 C 274.874 16.223,273.246 15.364,271.387 15.249 C 269.517 15.134,268.613 14.626,269.043 13.931 C 269.256 13.585,268.086 13.269,266.000 13.108 C 265.230 13.049,264.613 12.820,264.629 12.600 C 264.697 11.647,263.540 11.200,261.005 11.200 C 259.546 11.200,258.425 11.065,258.513 10.900 C 258.900 10.175,257.233 9.356,255.181 9.263 C 253.438 9.185,252.821 8.966,252.111 8.173 C 251.622 7.627,251.127 7.185,251.011 7.191 C 246.893 7.376,245.607 7.164,245.113 6.221 C 244.831 5.683,244.465 5.233,244.300 5.221 C 244.135 5.210,242.279 5.200,240.176 5.200 C 238.073 5.200,236.425 5.065,236.513 4.900 C 237.144 3.718,235.402 3.253,230.054 3.173 C 227.473 3.135,225.481 2.932,225.333 2.692 C 225.184 2.451,225.271 2.396,225.538 2.562 C 225.792 2.719,226.000 2.676,226.000 2.466 C 226.000 2.109,225.098 1.574,224.200 1.400 C 223.980 1.357,219.435 1.294,214.100 1.261 C 205.772 1.209,204.400 1.115,204.400 0.600 C 204.400 0.111,203.733 0.000,200.800 0.000 C 197.867 0.000,197.200 0.111,197.200 0.600 C 197.200 1.431,196.499 1.355,196.276 0.500 C 196.102 -0.167,196.091 -0.167,196.046 0.500 C 196.021 0.885,195.730 1.200,195.400 1.200 C 195.070 1.200,194.787 0.885,194.772 0.500 C 194.748 -0.099,194.694 -0.084,194.400 0.600 C 194.106 1.284,194.052 1.299,194.028 0.700 C 193.989 -0.274,187.200 -0.373,187.200 0.600 M200.089 13.601 C 202.130 13.576,204.520 13.530,205.400 13.499 C 209.712 13.346,221.857 14.483,223.400 15.184 C 224.399 15.638,226.831 16.070,229.878 16.334 C 232.560 16.566,235.260 17.012,235.878 17.324 C 236.495 17.636,237.952 18.013,239.117 18.162 C 240.281 18.310,241.811 18.784,242.517 19.214 C 243.290 19.686,244.520 19.998,245.611 19.999 C 246.636 19.999,247.826 20.283,248.354 20.653 C 248.867 21.012,250.688 21.618,252.400 22.000 C 254.112 22.382,255.933 22.988,256.446 23.347 C 256.958 23.706,257.783 24.000,258.279 24.000 C 258.774 24.000,260.539 24.540,262.200 25.200 C 263.861 25.860,265.656 26.400,266.187 26.400 C 266.718 26.400,267.267 26.584,267.406 26.810 C 267.704 27.291,272.978 30.000,273.617 30.000 C 274.013 30.000,282.353 34.006,284.800 35.372 C 285.350 35.678,286.250 36.131,286.800 36.378 C 287.350 36.624,288.735 37.405,289.878 38.113 C 291.022 38.821,293.182 40.106,294.678 40.969 C 296.175 41.833,298.511 43.363,299.868 44.369 C 301.225 45.376,303.716 47.190,305.402 48.400 C 309.945 51.659,309.769 51.520,314.274 55.400 C 316.573 57.380,318.936 59.360,319.527 59.800 C 323.229 62.559,338.523 79.136,340.010 82.000 C 340.296 82.550,341.237 83.841,342.102 84.870 C 342.967 85.898,344.423 87.904,345.337 89.328 C 346.252 90.751,348.375 93.960,350.057 96.458 C 351.738 98.956,353.564 101.900,354.114 103.000 C 356.557 107.877,356.959 108.634,357.408 109.200 C 357.885 109.802,359.133 112.236,360.688 115.600 C 363.886 122.516,366.000 127.422,366.000 127.928 C 366.000 128.253,366.433 129.438,366.963 130.560 C 367.492 131.682,368.501 134.580,369.203 137.000 C 369.906 139.420,370.912 142.751,371.440 144.401 C 371.968 146.052,372.400 147.816,372.400 148.321 C 372.400 148.826,372.657 149.737,372.972 150.345 C 373.286 150.953,373.669 152.609,373.823 154.025 C 373.977 155.441,374.456 158.130,374.888 160.000 C 375.716 163.582,376.202 168.161,376.738 177.400 C 376.917 180.480,377.274 183.507,377.531 184.126 C 378.125 185.552,378.132 197.890,377.541 200.400 C 377.308 201.390,376.963 204.000,376.774 206.200 C 376.211 212.748,375.658 217.685,375.271 219.600 C 375.071 220.590,374.689 222.660,374.423 224.200 C 373.885 227.312,373.552 228.761,372.628 232.000 C 372.283 233.210,371.831 235.010,371.623 236.000 C 371.156 238.221,367.589 248.658,366.598 250.702 C 366.198 251.526,365.563 252.830,365.187 253.600 C 364.811 254.370,364.387 255.492,364.246 256.092 C 363.964 257.291,362.513 260.463,356.030 274.058 C 354.914 276.400,354.000 278.493,354.000 278.709 C 354.000 278.925,353.726 279.329,353.392 279.607 C 353.057 279.885,352.147 281.482,351.369 283.156 C 348.471 289.390,341.930 302.093,341.047 303.200 C 340.784 303.530,340.250 304.430,339.861 305.200 C 339.471 305.970,338.634 307.500,337.999 308.600 C 337.365 309.700,336.617 311.050,336.337 311.600 C 336.056 312.150,335.416 313.157,334.914 313.838 C 334.411 314.519,334.000 315.202,334.000 315.357 C 334.000 315.709,330.151 322.179,328.978 323.800 C 328.500 324.460,327.441 326.170,326.625 327.600 C 325.809 329.030,324.300 331.577,323.271 333.259 C 322.242 334.942,320.320 338.150,319.000 340.388 C 317.680 342.626,315.959 345.479,315.176 346.729 C 310.636 353.968,306.497 360.627,305.800 361.811 C 305.360 362.559,304.390 364.212,303.645 365.485 C 302.900 366.758,301.109 369.686,299.665 371.991 C 298.221 374.296,296.614 376.996,296.093 377.991 C 294.436 381.154,290.970 387.095,285.709 395.789 C 285.439 396.235,284.849 397.358,284.398 398.283 C 283.946 399.209,283.409 400.071,283.203 400.198 C 282.997 400.326,282.003 402.088,280.995 404.115 C 279.986 406.142,278.574 408.880,277.856 410.200 C 277.139 411.520,275.505 414.580,274.227 417.000 C 272.948 419.420,271.592 421.850,271.212 422.400 C 270.833 422.950,270.340 423.940,270.117 424.600 C 269.894 425.261,269.247 426.484,268.681 427.319 C 267.694 428.773,266.383 431.373,262.891 438.800 C 262.012 440.670,260.462 443.945,259.446 446.077 C 258.431 448.210,257.600 450.058,257.600 450.184 C 257.600 450.310,256.812 451.716,255.849 453.307 C 254.887 454.898,253.975 456.771,253.824 457.469 C 253.673 458.167,252.775 460.327,251.828 462.269 C 250.881 464.211,249.972 466.250,249.808 466.800 C 249.307 468.487,246.740 474.243,244.965 477.659 C 244.434 478.681,244.000 479.843,244.000 480.241 C 244.000 480.638,243.201 482.605,242.225 484.611 C 241.249 486.618,240.326 488.786,240.174 489.430 C 240.021 490.073,239.589 491.230,239.212 492.000 C 238.835 492.770,238.212 494.300,237.826 495.400 C 237.441 496.500,236.683 498.570,236.141 500.000 C 235.600 501.430,234.368 504.999,233.404 507.931 C 232.440 510.863,231.385 513.668,231.060 514.164 C 230.735 514.660,230.342 515.952,230.187 517.033 C 230.032 518.115,229.586 519.540,229.195 520.200 C 228.804 520.860,228.354 522.210,228.195 523.200 C 228.036 524.190,227.631 525.535,227.297 526.189 C 226.962 526.843,226.437 528.451,226.131 529.763 C 225.825 531.075,225.414 532.342,225.217 532.579 C 225.021 532.816,224.591 534.088,224.262 535.405 C 222.865 541.005,221.868 544.690,221.396 546.000 C 220.913 547.337,218.580 556.379,217.628 560.600 C 216.507 565.568,213.581 564.343,212.374 558.400 C 212.128 557.190,211.485 554.670,210.945 552.800 C 210.405 550.930,209.771 548.680,209.536 547.800 C 209.301 546.920,208.035 542.960,206.723 539.000 C 205.412 535.040,204.158 530.810,203.938 529.600 C 203.719 528.390,203.282 527.000,202.968 526.511 C 202.653 526.023,202.198 524.673,201.955 523.511 C 201.712 522.350,201.178 520.847,200.768 520.172 C 200.358 519.496,199.469 517.246,198.791 515.172 C 198.114 513.097,197.311 511.020,197.007 510.555 C 196.702 510.090,196.188 508.740,195.863 507.555 C 195.539 506.370,194.612 503.870,193.804 502.000 C 192.995 500.130,192.050 497.800,191.703 496.822 C 191.356 495.844,190.832 494.584,190.538 494.022 C 190.245 493.460,190.004 492.843,190.002 492.650 C 189.999 492.097,187.921 487.505,187.175 486.400 C 186.803 485.850,186.369 484.770,186.211 484.000 C 186.052 483.230,185.489 481.848,184.961 480.929 C 184.432 480.010,183.998 479.020,183.996 478.729 C 183.993 478.438,182.193 474.618,179.996 470.241 C 177.798 465.863,176.000 462.058,176.000 461.784 C 176.000 461.511,174.495 458.343,172.656 454.744 C 170.817 451.145,168.444 446.490,167.382 444.400 C 166.321 442.310,164.856 439.664,164.127 438.520 C 163.398 437.376,162.064 435.036,161.164 433.320 C 160.263 431.604,159.294 429.930,159.010 429.600 C 158.726 429.270,157.394 426.879,156.049 424.286 C 154.704 421.693,153.265 419.083,152.852 418.486 C 152.091 417.386,151.477 416.371,149.172 412.400 C 147.561 409.626,146.617 408.107,144.322 404.600 C 143.315 403.060,142.172 401.170,141.783 400.400 C 141.047 398.942,140.832 398.602,138.075 394.520 C 137.154 393.155,136.400 391.885,136.400 391.697 C 136.400 391.509,135.725 390.356,134.900 389.135 C 129.485 381.119,126.000 375.748,126.000 375.418 C 126.000 375.267,125.290 374.301,124.422 373.272 C 123.554 372.242,122.335 370.391,121.713 369.158 C 121.091 367.924,119.994 366.124,119.276 365.158 C 117.028 362.133,110.400 352.348,110.400 352.053 C 110.400 351.721,107.992 347.830,106.901 346.400 C 106.142 345.405,104.142 342.526,99.054 335.105 C 97.586 332.963,96.218 330.773,96.015 330.240 C 95.812 329.706,94.830 328.196,93.832 326.884 C 92.834 325.572,91.835 324.071,91.612 323.549 C 91.389 323.027,90.861 322.150,90.437 321.600 C 89.412 320.269,85.217 313.897,84.157 312.060 C 82.548 309.274,79.188 303.850,78.686 303.226 C 78.408 302.882,77.567 301.340,76.818 299.800 C 76.068 298.260,75.199 296.695,74.885 296.321 C 73.659 294.863,70.748 290.037,69.142 286.800 C 68.213 284.930,67.043 282.898,66.540 282.285 C 66.037 281.671,64.707 279.331,63.584 277.085 C 62.461 274.838,61.212 272.640,60.808 272.200 C 60.403 271.760,58.085 267.497,55.656 262.726 C 53.227 257.956,51.062 253.726,50.846 253.326 C 50.629 252.927,50.203 252.060,49.899 251.400 C 49.596 250.740,49.141 249.840,48.889 249.400 C 48.244 248.275,46.399 243.636,46.025 242.200 C 45.853 241.540,45.347 240.370,44.899 239.600 C 44.093 238.213,42.442 233.387,40.793 227.600 C 40.323 225.950,39.772 224.287,39.569 223.905 C 39.366 223.523,39.200 222.779,39.200 222.251 C 39.200 221.723,38.931 220.776,38.602 220.146 C 38.274 219.516,38.004 218.151,38.002 217.114 C 38.001 216.076,37.749 214.636,37.442 213.914 C 36.665 212.083,36.000 208.183,36.000 205.456 C 36.000 204.100,35.729 202.636,35.337 201.880 C 33.494 198.321,33.473 159.542,35.312 156.120 C 35.734 155.334,36.000 153.953,36.000 152.544 C 36.000 150.301,36.479 147.015,37.275 143.800 C 37.492 142.920,37.817 141.210,37.997 140.000 C 38.176 138.790,38.698 136.630,39.156 135.200 C 39.615 133.770,39.997 132.240,40.005 131.800 C 40.014 131.360,40.473 129.740,41.026 128.200 C 41.579 126.660,42.196 124.860,42.397 124.200 C 42.719 123.140,43.800 120.130,45.704 114.993 C 46.031 114.109,46.682 112.671,47.150 111.799 C 47.617 110.926,48.001 109.939,48.002 109.606 C 48.004 109.273,48.296 108.460,48.652 107.800 C 49.008 107.140,50.147 104.980,51.184 103.000 C 55.436 94.878,56.977 92.108,58.230 90.336 C 58.954 89.311,59.924 87.732,60.385 86.829 C 60.846 85.925,62.765 83.269,64.650 80.927 C 66.534 78.584,68.180 76.382,68.306 76.034 C 68.521 75.442,70.368 73.147,73.623 69.426 C 74.380 68.561,76.546 66.311,78.435 64.426 C 80.325 62.542,82.157 60.531,82.506 59.959 C 83.401 58.493,92.650 50.273,93.881 49.850 C 94.442 49.658,95.207 49.208,95.582 48.850 C 98.525 46.043,101.382 43.627,102.854 42.701 C 103.814 42.096,105.306 41.085,106.169 40.454 C 107.031 39.824,108.381 38.972,109.169 38.562 C 109.956 38.152,111.554 37.125,112.721 36.280 C 113.888 35.435,115.418 34.551,116.121 34.316 C 116.824 34.081,117.760 33.575,118.200 33.191 C 118.640 32.806,119.450 32.360,120.000 32.199 C 120.550 32.037,121.270 31.672,121.600 31.388 C 121.930 31.103,123.213 30.424,124.450 29.879 C 125.688 29.334,128.028 28.258,129.650 27.488 C 134.714 25.085,137.193 24.138,144.000 22.001 C 147.630 20.862,151.140 19.753,151.800 19.537 C 154.427 18.675,164.633 16.416,168.000 15.951 C 169.210 15.784,171.100 15.452,172.200 15.214 C 175.584 14.479,181.536 13.977,187.374 13.933 C 190.439 13.910,193.409 13.753,193.974 13.584 C 194.538 13.415,195.310 13.360,195.689 13.462 C 196.067 13.563,198.047 13.626,200.089 13.601 M206.200 89.862 C 203.108 90.570,202.248 91.725,199.702 98.600 C 194.070 113.807,188.800 128.128,183.142 143.600 C 182.056 146.570,180.974 149.450,180.739 150.000 C 180.503 150.550,179.495 153.250,178.498 156.000 C 177.501 158.750,176.249 162.170,175.716 163.600 C 175.182 165.030,174.320 167.370,173.800 168.800 C 173.280 170.230,172.383 172.660,171.807 174.200 C 171.231 175.740,170.331 178.170,169.807 179.600 C 168.912 182.043,168.292 183.696,165.792 190.302 C 165.230 191.786,164.343 194.170,163.821 195.600 C 163.298 197.030,162.396 199.460,161.817 201.000 C 161.237 202.540,160.394 204.880,159.942 206.200 C 159.491 207.520,158.982 208.780,158.810 209.000 C 158.639 209.220,158.223 210.300,157.885 211.400 C 157.548 212.500,156.700 214.840,156.000 216.600 C 155.300 218.360,154.452 220.700,154.115 221.800 C 153.777 222.900,153.349 223.992,153.162 224.227 C 152.976 224.462,152.471 225.722,152.040 227.027 C 151.609 228.332,150.774 230.660,150.184 232.200 C 149.594 233.740,148.585 236.440,147.941 238.200 C 147.297 239.960,146.402 242.390,145.952 243.600 C 145.501 244.810,144.711 246.970,144.196 248.400 C 143.680 249.830,142.690 252.440,141.995 254.200 C 141.301 255.960,140.486 258.164,140.186 259.098 C 139.885 260.032,139.378 261.382,139.058 262.098 C 138.738 262.814,138.199 264.210,137.859 265.200 C 137.519 266.190,136.769 268.260,136.193 269.800 C 135.617 271.340,134.717 273.770,134.193 275.200 C 133.669 276.630,132.804 278.970,132.272 280.400 C 125.929 297.432,125.475 296.916,146.671 296.724 C 159.702 296.606,160.396 296.562,161.471 295.782 C 163.326 294.438,165.039 290.413,169.806 276.200 C 170.323 274.660,171.672 270.790,172.804 267.600 C 173.936 264.410,175.121 260.990,175.438 260.000 C 175.755 259.010,176.359 257.300,176.780 256.200 C 177.201 255.100,178.469 251.500,179.597 248.200 C 182.848 238.695,183.598 236.929,184.571 236.486 C 185.503 236.061,208.206 236.364,237.800 237.195 C 255.935 237.704,256.877 237.776,257.716 238.718 C 258.312 239.387,263.282 253.456,264.032 256.600 C 264.242 257.480,264.591 258.560,264.807 259.000 C 265.023 259.440,267.603 267.094,270.542 276.008 C 276.232 293.270,276.537 294.051,278.194 295.600 L 279.263 296.600 291.932 296.721 C 311.941 296.912,311.310 297.914,303.982 277.600 C 303.308 275.730,302.416 273.210,302.000 272.000 C 301.584 270.790,300.724 268.360,300.088 266.600 C 299.453 264.840,297.444 259.080,295.626 253.800 C 293.807 248.520,291.536 241.950,290.579 239.200 C 289.621 236.450,288.094 232.040,287.185 229.400 C 286.277 226.760,285.293 224.060,284.999 223.400 C 284.705 222.740,284.188 221.300,283.851 220.200 C 283.513 219.100,282.790 216.940,282.243 215.400 C 281.697 213.860,280.324 209.990,279.193 206.800 C 277.123 200.966,273.531 190.602,271.776 185.400 C 271.256 183.860,270.285 181.070,269.617 179.200 C 268.950 177.330,267.683 173.730,266.803 171.200 C 265.922 168.670,264.652 165.070,263.979 163.200 C 263.306 161.330,262.421 158.810,262.012 157.600 C 261.603 156.390,260.339 152.790,259.203 149.600 C 258.068 146.410,256.180 141.010,255.009 137.600 C 253.837 134.190,251.495 127.440,249.803 122.600 C 248.111 117.760,246.393 112.810,245.985 111.600 C 245.578 110.390,244.684 107.870,243.999 106.000 C 243.314 104.130,242.401 101.520,241.969 100.200 C 239.190 91.697,239.481 91.832,221.400 90.619 C 207.539 89.688,207.062 89.665,206.200 89.862 M222.434 133.041 C 222.898 133.600,234.770 168.339,236.165 173.218 C 236.451 174.219,236.874 175.390,237.105 175.822 C 237.335 176.253,237.801 177.595,238.138 178.803 C 238.475 180.011,239.402 182.800,240.197 185.000 C 240.992 187.200,241.890 189.810,242.193 190.800 C 242.496 191.790,243.726 195.451,244.925 198.935 C 247.222 205.604,247.323 206.653,245.710 207.058 C 244.106 207.461,198.222 206.245,196.677 205.759 C 195.175 205.286,195.110 203.764,196.434 200.065 C 197.117 198.159,197.917 195.880,198.213 195.000 C 198.509 194.120,199.765 190.520,201.006 187.000 C 202.246 183.480,203.596 179.610,204.005 178.400 C 204.415 177.190,205.403 174.400,206.202 172.200 C 207.000 170.000,207.833 167.570,208.053 166.800 C 208.272 166.030,208.778 164.680,209.176 163.800 C 209.575 162.920,210.034 161.570,210.197 160.800 C 210.359 160.030,210.632 159.220,210.803 159.000 C 210.974 158.780,211.483 157.430,211.934 156.000 C 212.385 154.570,213.314 151.870,213.999 150.000 C 214.684 148.130,215.578 145.610,215.987 144.400 C 220.149 132.065,220.748 131.010,222.434 133.041 " stroke="none" fill="#e4a8a0" fill-rule="evenodd"></path></g></svg>